<?xml version="1.0" encoding="iso-8859-1"?>
<!-- Generator: Adobe Illustrator 19.2.0, SVG Export Plug-In . SVG Version: 6.00 Build 0)  -->
<svg version="1.1" xmlns="http://www.w3.org/2000/svg" xmlns:xlink="http://www.w3.org/1999/xlink" x="0px" y="0px"
	 viewBox="0 0 600 600" enable-background="new 0 0 600 600" xml:space="preserve">
<g id="Layer_1">
	<g>
		<path opacity="0.6" fill="#EDD3A5" d="M90.6303253,132.7507477c13.358963-52.9220657,78.098587,8.9951935,79.1261902-42.3854523
			c1.0276184-51.3806496,101.2198639-54.4634857,156.1971588-47.7840042s31.3421936,51.3806458,73.9881287,54.4634857
			s103.7889099-10.9895248,126.3963928,51.6948624s13.3590088,180.798996,11.8175659,244.5109711
			s-40.5907288,29.2869873-41.6183167,76.5571899c-0.5138245,23.4809875-6.4739685,41.9060669-22.0423279,56.0768433
			c0,0-0.0719299,0.0718994-0.2260437,0.1952515c-2.3532715,2.0038452-22.7513733,18.5895386-49.5720215,15.5067139
			c-28.5265503-3.2678223-37.3640747-14.098877-40.6626587-43.8894043
			c-3.2986755-29.7904663-52.8296204-27.5708618-49.6337585,19.7095947
			c3.1959229,47.229126-83.688736,37.3948975-110.1292572,34.9799194
			c-18.8053131-3.6171265-32.2567902-8.9915771-34.9902191-16.8117065
			c-10.7899323-30.8283997-0.5137939-70.905304-23.6350861-69.8776855s-68.3362656,2.5690308-74.5019455-46.7563782
			C84.9784546,369.6155396,77.2713547,185.6728058,90.6303253,132.7507477z"/>
		<g opacity="0.5">
			<path fill="#E09432" d="M333.9029846,71.0371933c-56.584137,0-44.163208,69.8182297-45.5433044,95.1444473
				c-1.380127,25.3262024,10.3507385,60.9198151,46.9234009,60.9198151s32.432373-51.3369293,32.432373-82.1390839
				S369.0955811,71.0371933,333.9029846,71.0371933z"/>
			<g>
				<path fill="#E09432" d="M323.4689331,264.1532288c-43.7044983,0-45.5255127,65.028717-44.6149902,112.8970642
					c0.9104919,47.8683777-1.8210449,107.4780273,50.9885559,107.4780273s41.8834839-77.6731873,42.7940063-118.3161316
					C373.5469971,325.5692444,376.2785339,264.1532288,323.4689331,264.1532288z"/>
				<path fill="#E9B36B" d="M323.4689331,287.6855164c-25.0484314,0-30.6843262,73.297699,2.5048523,73.297699
					S356.6581116,287.6855164,323.4689331,287.6855164z"/>
			</g>
			<g>
				<path fill="#E09432" d="M148.617218,70.6136017c-47.336441,4.4076691-46.2988892,56.5903778-49.2062683,138.5063782
					c-2.9073715,81.9160004,2.0519409,150.1679535,18.8232956,186.0314789s70.3176804,75.4927979,101.7946396,66.7676697
					c31.4769745-8.7250977,46.0081329-48.3987732,21.5154724-74.6940308
					c-24.4926758-26.2952271-38.3944092-50.5742188-39.1074677-99.8110352s0.0959167-95.138855-1.9065704-154.2637482
					S174.1274719,68.2382507,148.617218,70.6136017z"/>
				<path fill="#E9B36B" d="M149.8802032,103.360405c-36.349411-1.290123-43.0678482,113.2983017,1.2765961,114.0519943
					C195.501236,218.1660767,197.7408142,105.059082,149.8802032,103.360405z"/>
			</g>
		</g>
	</g>
</g>
<g id="BACKGROUND">
	<g>
		<g>
			<path fill="#192D3C" d="M560.026123,159.1393127l-50.6399841,345.5799561
				c-0.3599854,2.5300293-1.6400146,4.8400269-3.4400024,6.6000366c0,0,0,0,0,0.0100098
				c-2.1599731,2.1199646-5.0800171,3.4599304-8.1099854,3.4599304H323.8161316c-2.5599976,0-4.75-0.9599609-6.289978-2.5299683
				l-0.0100098,0.0100098l-21.4400024-21.4499817l7.2399902-10.8599854l19.9000244-29.8700562l42.6400146-290.9499512
				c0.8099976-5.5599976,5.9899902-10.0700073,11.5499878-10.0700073h146.3799744l12.5599976-18.8400269l21.1399536,21.1199951
				C559.4661255,153.1993103,560.486084,155.9992981,560.026123,159.1393127z"/>
			<path fill="#151F27" d="M505.9461365,511.3193054c0,0,0,0,0,0.0100098
				c-2.1599731,2.1199646-5.0800171,3.4599304-8.1099854,3.4599304H323.8161316c-2.5599976,0-4.75-0.9599609-6.289978-2.5299683
				l-0.0100098,0.0100098l-21.4400024-21.4499817l7.2399902-10.8599854h171.2800293L505.9461365,511.3193054z"/>
			<path fill="#27465B" d="M476.3635864,493.3213196H302.342926c-5.5653992,0-9.4159241-4.5116577-8.6003418-10.0770569
				l50.6405945-345.5731201c0.8155518-5.5654144,5.9883728-10.0770645,11.553772-10.0770645h174.0206299
				c5.5654297,0,9.4159546,4.5116501,8.6004028,10.0770645l-50.640625,345.5731201
				C487.1018066,488.8096619,481.9289856,493.3213196,476.3635864,493.3213196z"/>
			<path fill="#192D3C" d="M457.1161194,138.9525452h-31.6666565c-1.8409729,0-3.1146545-1.4923859-2.8448792-3.3333282v-0.0000153
				c0.2697754-1.8409424,1.9808655-3.3333282,3.8218079-3.3333282h31.666687c1.8409424,0,3.114624,1.4923859,2.8448486,3.3333282
				v0.0000153C460.6681519,137.4601593,458.9570923,138.9525452,457.1161194,138.9525452z"/>
		</g>
		<path fill="#5B8972" d="M301.7425842,483.2445679l49.5167236-337.9039307
			c0.1681213-1.147171,1.234375-2.0771484,2.3815613-2.0771484H527.661377c1.1472168,0,1.9408569,0.9299774,1.7727661,2.0771484
			l-49.5167542,337.9039307c-0.1680908,1.1471558-1.2343445,2.0771484-2.3815308,2.0771484H303.5153198
			C302.3681641,485.3217163,301.5744629,484.3917236,301.7425842,483.2445679z"/>
		<g>
			<path fill="#416050" d="M403.8764954,298.8933411c-7.4799805,0-14.4380493,6.0599976-15.5341797,13.5400391
				l-4.0744629,27.8043823c-0.0264282,0.1800537-0.0542603,0.3700562-0.0606079,0.5500488h-0.0200195l-4.0254517,27.4699707
				l16.5903931-14.4699707H506.888031l8.04422-54.8944702H403.8764954z"/>
			<path fill="#416050" d="M418.193634,201.1924744c-7.4799805,0-14.4379883,6.0599976-15.5341187,13.5400391l-4.0745239,27.8043823
				c-0.0263672,0.1800537-0.0541992,0.3700562-0.0605469,0.5500488h-0.0200195l-4.0255127,27.4699707l16.5904541-14.4699707
				h110.1357727l8.0443115-54.8944702H418.193634z"/>
			<path fill="#416050" d="M389.5592957,396.5942078c-7.4799805,0-14.4380493,6.0599976-15.5341797,13.5400391
				l-4.0744629,27.8043823c-0.0263672,0.1800537-0.0541992,0.3700562-0.0606079,0.5500488h-0.0200195l-4.0254517,27.4699707
				l16.5903931-14.4699707h110.1358643l8.0443115-54.8944702H389.5592957z"/>
			<path fill="#151F27" d="M500.6151428,396.5942078l6.8442383,6.8442688
				c4.1107483,4.1107483,6.0364685,9.9227295,5.193512,15.6747742l-4.9980469,34.1068115
				c-0.704895,4.8103638-6.5917664,6.7608643-10.029541,3.3230896l-5.0544739-5.0544739L500.6151428,396.5942078z"/>
			<path fill="#151F27" d="M514.932251,298.8933411l6.8476563,6.8476563
				c4.1088257,4.1088257,6.03479,9.9174805,5.1946411,15.6672058l-4.9852295,34.1179504
				c-0.703064,4.8117676-6.5913086,6.7640991-10.0299072,3.3255005l-5.0501709-5.0501404L514.932251,298.8933411z"/>
			<path fill="#151F27" d="M529.2494507,201.1924744l6.8406372,6.8406525
				c4.112793,4.1127777,6.038269,9.9283447,5.1923828,15.6828461l-5.0009766,34.0212402
				c-0.7068481,4.8088684-6.5922241,6.7574158-10.0291748,3.3204956l-5.059082-5.059082L529.2494507,201.1924744z"/>
		</g>
		<g>
			<g>
				<path fill="#FFFFFF" d="M531.486084,304.9493103l-4.0799561,27.7999878
					c-1.1000366,7.4799805-8.0499878,13.5499878-15.519989,13.5499878H391.7361145l-16.5899658,14.4700317l4.0299683-27.4700317
					h0.0200195c0-0.1799927,0.0300293-0.3699951,0.0599976-0.5499878l0.8400269-5.710022l3.2299805-22.0899658
					c1.0999756-7.4800415,8.0599976-13.5400391,15.539978-13.5400391h121.059967
					c1.4800415,0,2.8700562,0.2399902,4.1400146,0.6700439C529.2061157,293.8692932,532.3561401,298.9493103,531.486084,304.9493103
					z"/>
				<path fill="#E0E0DF" d="M531.486084,304.9493103l-4.0799561,27.7999878
					c-1.1000366,7.4799805-8.0499878,13.5499878-15.519989,13.5499878H391.7361145l-16.5899658,14.4700317l4.0299683-27.4700317
					h0.0200195c0-0.1799927,0.0300293-0.3699951,0.0599976-0.5499878l0.8400269-5.710022
					c99.9500122-0.289978,133.0399475-21.539978,143.9699402-34.9599609
					C529.2061157,293.8692932,532.3561401,298.9493103,531.486084,304.9493103z"/>
				<g>
					<polygon fill="#DF9334" points="406.7017212,305.9887695 409.52771,314.1330566 418.3240662,315.4390564 
						410.8914795,321.7785034 411.1150208,330.7299194 403.6954651,326.5036316 395.0372314,330.7299194 397.8842773,321.7785034 
						392.3096619,315.4390564 401.4888,314.1330566 					"/>
					<polygon fill="#DF9334" points="440.4025574,305.9887695 443.2285156,314.1330566 452.0249023,315.4390564 
						444.5923157,321.7785034 444.8158569,330.7299194 437.3962708,326.5036316 428.7380676,330.7299194 431.5851135,321.7785034 
						426.010498,315.4390564 435.1896362,314.1330566 					"/>
					<polygon fill="#DF9334" points="474.1033936,305.9887695 476.9293518,314.1330566 485.7257385,315.4390564 
						478.2931519,321.7785034 478.5166931,330.7299194 471.0971069,326.5036316 462.4389038,330.7299194 465.2859497,321.7785034 
						459.7113342,315.4390564 468.8904724,314.1330566 					"/>
					<polygon fill="#C8C8C8" points="507.8041992,305.9887695 510.630188,314.1330566 519.4265747,315.4390564 
						511.9939575,321.7785034 512.2175293,330.7299194 504.7979431,326.5036316 496.1397095,330.7299194 498.9867554,321.7785034 
						493.4121399,315.4390564 502.5912781,314.1330566 					"/>
				</g>
			</g>
			<g>
				<path fill="#FFFFFF" d="M545.7961426,207.2492981l-4.0700073,27.7999878
					c-1.1000366,7.4799805-8.0599976,13.5499878-15.5300293,13.5499878H406.0561218l-16.5899658,14.4700317l4.0299683-27.4700317
					c0.0100098,0,0.0100098,0,0.0200195,0c0-0.1799927,0.0300293-0.3699951,0.0599976-0.5499878l4.0700073-27.7999878
					c1.0999756-7.4799805,8.0499878-13.539978,15.5299683-13.539978h121.0699768c1.25,0,2.4299927,0.1699829,3.5300293,0.4899902
					C543.276123,195.7693176,546.7161255,201.0193176,545.7961426,207.2492981z"/>
				<path fill="#E0E0DF" d="M545.7961426,207.2492981l-4.0700073,27.7999878
					c-1.1000366,7.4799805-8.0599976,13.5499878-15.5300293,13.5499878H406.0561218l-16.5899658,14.4700317l4.0299683-27.4700317
					c0.0100098,0,0.0100098,0,0.0200195,0c73.6699829,0,122.1799622-14.6599731,144.2599792-41.3999634
					C543.276123,195.7693176,546.7161255,201.0193176,545.7961426,207.2492981z"/>
				<g>
					<polygon fill="#DF9334" points="421.0188904,208.2878876 423.8448792,216.4321747 432.6412354,217.7381744 
						425.2086487,224.0776215 425.4321899,233.029068 418.0126343,228.8027649 409.3544006,233.029068 412.2014465,224.0776215 
						406.6268311,217.7381744 415.8059692,216.4321747 					"/>
					<polygon fill="#DF9334" points="454.7197266,208.2878876 457.5457153,216.4321747 466.3420715,217.7381744 
						458.9094849,224.0776215 459.1330261,233.029068 451.7134705,228.8027649 443.0552368,233.029068 445.9022827,224.0776215 
						440.3276672,217.7381744 449.5068054,216.4321747 					"/>
					<polygon fill="#DF9334" points="488.4205627,208.2878876 491.246521,216.4321747 500.0429077,217.7381744 
						492.610321,224.0776215 492.8338623,233.029068 485.4142761,228.8027649 476.756073,233.029068 479.6031189,224.0776215 
						474.0285034,217.7381744 483.2076416,216.4321747 					"/>
					<polygon fill="#DF9334" points="522.1213989,208.2878876 524.9473877,216.4321747 533.7437134,217.7381744 
						526.3111572,224.0776215 526.534668,233.029068 519.1151123,228.8027649 510.4569092,233.029068 513.3039551,224.0776215 
						507.7293396,217.7381744 516.9084473,216.4321747 					"/>
				</g>
			</g>
			<g>
				<path fill="#FFFFFF" d="M517.1661377,402.6492615l-4.0800171,27.8000488
					c-1.0899963,7.4799805-8.0499573,13.5499878-15.519989,13.5499878H377.4261169l-16.5899658,14.4699707l4.0200195-27.4699707
					h0.0199585c0.0100098-0.1799927,0.0400391-0.3699951,0.0599976-0.5499878l1.1799927-8.0599976l2.9000244-19.7400513
					c1.0900269-7.4799805,8.0499878-13.539978,15.5300293-13.539978h121.0599976
					c2.5599976,0,4.8599854,0.710022,6.7199402,1.9500122C515.8961182,393.4393005,517.8861084,397.7392883,517.1661377,402.6492615
					z"/>
				<path fill="#E0E0DF" d="M517.1661377,402.6492615l-4.0800171,27.8000488
					c-1.0899963,7.4799805-8.0499573,13.5499878-15.519989,13.5499878H377.4261169l-16.5899658,14.4699707l4.0200195-27.4699707
					h0.0199585c0.0100098-0.1799927,0.0400391-0.3699951,0.0599976-0.5499878l1.1799927-8.0599976
					c19.960022-2.0100098,44.3600464-4.2600098,71.5900269-4.2600098c44.9799805,0,65.4699707-15.1699829,74.6199646-27.0700073
					C515.8961182,393.4393005,517.8861084,397.7392883,517.1661377,402.6492615z"/>
				<g>
					<polygon fill="#DF9334" points="392.384552,403.6896362 395.2105103,411.8339233 404.006897,413.1399231 
						396.5743103,419.4793701 396.7978516,428.4307861 389.3782654,424.2044983 380.7200623,428.4307861 383.5671082,419.4793701 
						377.9924927,413.1399231 387.1716309,411.8339233 					"/>
					<polygon fill="#DF9334" points="426.0853882,403.6896362 428.9113464,411.8339233 437.7077332,413.1399231 
						430.2751465,419.4793701 430.4986877,428.4307861 423.0791016,424.2044983 414.4208984,428.4307861 417.2679443,419.4793701 
						411.6933289,413.1399231 420.872467,411.8339233 					"/>
					<polygon fill="#C8C8C8" points="459.7861938,403.6896362 462.6121826,411.8339233 471.4085388,413.1399231 
						463.9759521,419.4793701 464.1994934,428.4307861 456.7799377,424.2044983 448.1217041,428.4307861 450.96875,419.4793701 
						445.3941345,413.1399231 454.5732727,411.8339233 					"/>
					<polygon fill="#C8C8C8" points="493.48703,403.6896362 496.3130188,411.8339233 505.109375,413.1399231 
						497.6767883,419.4793701 497.9003296,428.4307861 490.4807739,424.2044983 481.8225403,428.4307861 484.6695862,419.4793701 
						479.0949707,413.1399231 488.2741089,411.8339233 					"/>
				</g>
			</g>
		</g>
		<g>
			<g>
				<path fill="#FCFDFF" d="M385.5073853,174.9525452h-15.75c-3.3827515,0-5.7231445-2.7422485-5.2274475-6.125l1.2822266-8.75
					c0.4957275-3.3827362,3.6398315-6.125,7.022583-6.125h15.75c3.3827209,0,5.7231445,2.7422638,5.227417,6.125l-1.2822266,8.75
					C392.0342407,172.2102966,388.8901062,174.9525452,385.5073853,174.9525452z"/>
				<path fill="#FCFDFF" d="M502.2573853,174.9525452h-93.75c-3.3827515,0-5.7231445-2.7422485-5.2274475-6.125l1.2822266-8.75
					c0.4957275-3.3827362,3.6398315-6.125,7.022583-6.125h93.75c3.3827515,0,5.7231445,2.7422638,5.2274475,6.125l-1.2822266,8.75
					C508.7842407,172.2102966,505.6401367,174.9525452,502.2573853,174.9525452z"/>
				<path fill="#192D3C" d="M492.9971924,158.9667664c-2.6936951,2.2849121-3.2688904,6.0548401-1.2883301,8.375473
					c1.7440491,2.0435028,4.8868713,2.2627106,7.4060364,0.6575623l2.7851257,3.2633362
					c0.3449402,0.4041748,1.0002441,0.4041748,1.4636536,0l0,0c0.4634094-0.4041901,0.5594482-1.059494,0.2145081-1.4636841
					l-2.7851257-3.2633209c2.0084534-2.3647461,2.2011719-5.6846619,0.2492371-7.7149658
					C499.087677,156.7880707,495.4861145,156.8555603,492.9971924,158.9667664z M498.6222839,165.7158966
					c-1.5971069,1.3929901-3.8599243,1.3929901-5.0487671,0c-1.1949158-1.4001007-0.8632813-3.6628418,0.7338257-5.0558319
					c1.6052246-1.4000549,3.867981-1.4001007,5.0628967,0C500.559082,162.0530548,500.2275085,164.3158417,498.6222839,165.7158966z
					"/>
			</g>
			<g>
				<path fill="#192D3C" d="M333.6647949,474.9887085L333.6647949,474.9887085c1.221344,0,2.3565063-0.9900818,2.5354614-2.2114258
					l41.8850708-285.8248901c0.1789551-1.2213287-0.6660461-2.2114105-1.8873596-2.2114105l0,0
					c-1.221344,0-2.3565063,0.9900818-2.5354614,2.2114105l-41.8850708,285.8248901
					C331.5984802,473.9986267,332.4434814,474.9887085,333.6647949,474.9887085z"/>
				<g>
					<path fill="#FFFFFF" d="M375.9544067,228.389389h-12.3054199c-2.3610535,0-3.9945679-1.9140015-3.6485596-4.2750397
						l2.6421814-18.0304413c0.3460083-2.3610382,2.5404663-4.2750397,4.9015198-4.2750397h12.3053894
						c2.3610535,0,3.9945679,1.9140015,3.6485901,4.2750397l-2.6422119,18.0304413
						C380.5099182,226.4753876,378.3154297,228.389389,375.9544067,228.389389z"/>
					<g>
						<path fill="#192D3C" d="M377.0146484,212.9432068h-9.8988953c-1.0250854,0-1.7342834-0.8309784-1.5840759-1.8560486l0,0
							c0.150238-1.0250549,1.1029663-1.8560333,2.1280212-1.8560333h9.8988953c1.0250854,0,1.7342834,0.8309784,1.5840759,1.8560333
							l0,0C378.9924622,212.1122284,378.0397034,212.9432068,377.0146484,212.9432068z"/>
						<path fill="#192D3C" d="M375.8388062,220.9671326h-9.8988953c-1.0250549,0-1.7342834-0.8309784-1.5840454-1.8560486l0,0
							c0.1502075-1.0250549,1.1029663-1.8560333,2.1280212-1.8560333h9.8988953
							c1.0250549,0,1.7342529,0.8309784,1.5840454,1.8560333l0,0
							C377.8166199,220.1361542,376.8638611,220.9671326,375.8388062,220.9671326z"/>
					</g>
				</g>
			</g>
			<path fill="#BB233D" d="M490.676239,275.9893188h-89.3356628c-2.4613647,0-4.1643066-1.9953308-3.8036194-4.4566956v-0.0000305
				c0.3606873-2.4613647,2.6484375-4.4566956,5.1098022-4.4566956h89.3356628c2.4613647,0,4.1643066,1.9953308,3.8036194,4.4566956
				v0.0000305C495.425354,273.993988,493.1376038,275.9893188,490.676239,275.9893188z"/>
			<path fill="#BB233D" d="M476.3590393,373.6901855H387.023407c-2.4613953,0-4.1643372-1.9953308-3.8036194-4.4566956v-0.0000305
				c0.3606873-2.4613647,2.648407-4.4566956,5.1098022-4.4566956h89.3356323c2.4613953,0,4.1643372,1.9953308,3.8036499,4.4566956
				v0.0000305C481.1081848,371.6948547,478.8204346,373.6901855,476.3590393,373.6901855z"/>
			<path fill="#BB233D" d="M462.0418701,471.3910522h-89.3356323c-2.4613953,0-4.1643372-1.9953308-3.8036499-4.4566956v-0.0000305
				c0.3607178-2.4613647,2.6484375-4.4566956,5.1098328-4.4566956h89.3356323c2.4613953,0,4.1643372,1.9953308,3.8036194,4.4566956
				v0.0000305C466.7909851,469.3957214,464.5032654,471.3910522,462.0418701,471.3910522z"/>
		</g>
		<g>
			<g>
				<path fill="#FFFFFF" d="M313.3564148,80.0043106c8.9277344,9.5546494,15.9002991,20.4749451,23.2076721,31.2747955
					c0.7642822,1.1295471,2.6147156,0.0547333,1.8365479-1.0735016
					c-7.2625427-10.5297089-14.0730896-23.134758-24.486908-30.9235687
					C313.4815674,78.9588318,313.0144958,79.6383743,313.3564148,80.0043106L313.3564148,80.0043106z"/>
			</g>
			<g>
				<path fill="#FFFFFF" d="M341.1019592,117.6460342c0.6237793,1.0901337,1.295166,2.1374893,1.9883423,3.1844711
					c0.6023254,0.9097672,1.1824341,1.9315338,2.0601807,2.5904541c0.5064697,0.3801956,1.2668152-0.2513046,1.0696411-0.8222961
					c-0.3540039-1.0252151-1.184082-1.9056244-1.8595886-2.7482605c-0.7819824-0.9755096-1.5718689-1.9317932-2.4159241-2.8545456
					C341.5276794,116.5400848,340.8032837,117.1240921,341.1019592,117.6460342L341.1019592,117.6460342z"/>
			</g>
			<g>
				<path fill="#FFFFFF" d="M350.963501,67.7000351c0.3654175,2.5993652,1.0005798,5.1879501,2.0099792,7.6163635
					c0.6590576,1.5856247,1.3545532,3.7363052,3.1086426,4.292366c0.2961426,0.0938797,0.5704651-0.1567078,0.5821228-0.4434509
					c0.0710449-1.749939-1.5586853-3.338501-2.3578491-4.836441c-1.1663208-2.1861115-1.9460449-4.4538956-2.4559937-6.8733444
					C351.725708,66.8639069,350.8834534,67.1305542,350.963501,67.7000351L350.963501,67.7000351z"/>
			</g>
			<g>
				<path fill="#FFFFFF" d="M357.6256409,87.8262482c2.5864868,10.6224289,5.9941101,21.0581512,8.9342651,31.5870209
					c0.3576965,1.2808456,2.3583374,0.7358246,1.9955444-0.5501404
					c-2.9136658-10.3280563-5.1487427-21.8104706-10.0542297-31.4060135
					C358.2477417,86.9613037,357.5004578,87.3120575,357.6256409,87.8262482L357.6256409,87.8262482z"/>
			</g>
			<g>
				<path fill="#FFFFFF" d="M387.9552917,101.5911331c0.162384,4.0975418-0.3652039,9.0708694,0.9272156,12.9854507
					c0.1218872,0.3691559,0.7204895,0.4307404,0.8118286,0c0.8567505-4.0402908-0.2001343-8.8950272-0.4875488-12.9854507
					C389.1509094,100.7957458,387.9231567,100.7796402,387.9552917,101.5911331L387.9552917,101.5911331z"/>
			</g>
			<g>
				<path fill="#FFFFFF" d="M318.2666626,150.3378296c1.7061157,0.3190918,3.3813171,0.727356,5.0456543,1.2194366
					c1.3115845,0.3877869,2.675415,1.1431274,4.0449219,0.8321381c0.3470154-0.0787964,0.3776855-0.4845428,0.1902466-0.7205811
					c-0.9172363-1.1552124-2.7672424-1.3752747-4.1416626-1.6743164c-1.6465759-0.3582458-3.3119507-0.6036072-4.9863586-0.7858429
					C317.779541,149.1390228,317.631012,150.2189484,318.2666626,150.3378296L318.2666626,150.3378296z"/>
			</g>
			<g>
				<path fill="#FFFFFF" d="M319.4844055,173.8390808c2.5173645-0.4434509,5.0353699-0.8834534,7.552124-1.3303528
					c2.1578674-0.3831787,4.5744629-0.4893036,6.4635315-1.6296844c0.3122559-0.1885071,0.3088379-0.7966156-0.1121521-0.8580475
					c-2.1069336-0.3074493-4.1680298,0.4169159-6.2301941,0.8756409c-2.6643982,0.5926971-5.3261108,1.1979065-7.9891357,1.7968597
					C318.4143372,172.8631287,318.7422485,173.9698181,319.4844055,173.8390808L319.4844055,173.8390808z"/>
			</g>
		</g>
	</g>
</g>
<g id="DOTS">
	<g>
		<g>
			<path fill="#FFFFFF" d="M143.1748047,140.394043c-4.8041992,0-8.7124023-3.9082031-8.7124023-8.7124023
				s3.9082031-8.7124023,8.7124023-8.7124023s8.7124023,3.9082031,8.7124023,8.7124023
				S147.9790039,140.394043,143.1748047,140.394043z M143.1748047,124.9692383
				c-3.7011719,0-6.7124023,3.0112305-6.7124023,6.7124023s3.0112305,6.7124023,6.7124023,6.7124023
				s6.7124023-3.0112305,6.7124023-6.7124023S146.8759766,124.9692383,143.1748047,124.9692383z"/>
		</g>
		<g>
			<path fill="#FBF3E5" d="M219.3950195,353.109375c-3.1030273,0-5.6274414-2.5244141-5.6274414-5.6279297
				c0-3.1025391,2.5244141-5.6269531,5.6274414-5.6269531s5.6279297,2.5244141,5.6279297,5.6269531
				C225.0229492,350.5849609,222.4980469,353.109375,219.3950195,353.109375z M219.3950195,343.8544922
				c-2,0-3.6274414,1.6269531-3.6274414,3.6269531s1.6274414,3.6279297,3.6274414,3.6279297
				c2.0004883,0,3.6279297-1.6279297,3.6279297-3.6279297S221.3955078,343.8544922,219.3950195,343.8544922z"/>
		</g>
		<g>
			<path fill="#FFFFFF" d="M257.1865234,442.5742188c-3.5283203,0-6.3989258-2.8701172-6.3989258-6.3984375
				s2.8706055-6.3994141,6.3989258-6.3994141s6.3989258,2.8710938,6.3989258,6.3994141
				S260.7148438,442.5742188,257.1865234,442.5742188z M257.1865234,431.7763672
				c-2.4257813,0-4.3989258,1.9736328-4.3989258,4.3994141s1.9731445,4.3984375,4.3989258,4.3984375
				s4.3989258-1.9726563,4.3989258-4.3984375S259.6123047,431.7763672,257.1865234,431.7763672z"/>
		</g>
		<g>
			<path fill="#FFFFFF" d="M281.6201172,380.53125c-4.1660156,0-7.5556641-3.3896484-7.5556641-7.5556641
				s3.3896484-7.5556641,7.5556641-7.5556641s7.5556641,3.3896484,7.5556641,7.5556641S285.7861328,380.53125,281.6201172,380.53125
				z M281.6201172,367.4199219c-3.0634766,0-5.5556641,2.4921875-5.5556641,5.5556641s2.4921875,5.5556641,5.5556641,5.5556641
				s5.5556641-2.4921875,5.5556641-5.5556641S284.6835938,367.4199219,281.6201172,367.4199219z"/>
		</g>
		<g>
			<path fill="#FFFFFF" d="M322.3222656,133.7407227c-6.0800781,0-11.0263672-4.9462891-11.0263672-11.0263672
				c0-6.0795898,4.9462891-11.0258789,11.0263672-11.0258789s11.0263672,4.9462891,11.0263672,11.0258789
				C333.3486328,128.7944336,328.4023438,133.7407227,322.3222656,133.7407227z M322.3222656,113.6884766
				c-4.9775391,0-9.0263672,4.0488281-9.0263672,9.0258789s4.0488281,9.0263672,9.0263672,9.0263672
				s9.0263672-4.0493164,9.0263672-9.0263672S327.2998047,113.6884766,322.3222656,113.6884766z"/>
		</g>
	</g>
</g>
<g id="LEFT_LEG">
	<g>
		<g>
			<path fill="#416050" d="M202.7128601,477.1246948l-16.336441-8.9821777l-21.8270264-0.8594666l9.2686768-51.4554443
				c0,0-51.3051682-61.2160034-54.5117874-77.4513855c-3.2066422-16.2354431,8.9176559-63.5138855,32.7917862-57.1651001
				c23.874176,6.3488159,29.6818237,24.8284912,29.4060822,42.3935852c0,0,3.9245758,7.2650757,9.3907166,17.6378174
				c8.3818817,15.8933411,20.3886871,39.0682068,27.4671326,54.5290222
				c3.527771,7.7164307,5.8361969,13.5056458,5.8542786,15.524353c0.0221863,2.3660583-1.5569611,8.3115845-3.8694763,15.7183228
				C214.1531219,446.8390198,202.7128601,477.1246948,202.7128601,477.1246948z"/>
			<path fill="#304B3B" d="M186.3764191,468.1425171l-21.8270264-0.8594666l9.2686768-51.4554443
				c0,0-51.3051682-61.2160034-54.5117874-77.4513855c-3.2066422-16.2354431,8.9176559-63.5138855,32.7917862-57.1651001
				c23.874176,6.3488159,29.6818237,24.8284912,29.4060822,42.3935852c0,0,3.9245758,7.2650757,9.3907166,17.6378174
				c-10.4124298,3.1985779-29.4085236,9.0321655-32.265686,9.8355103
				c-3.9514618,1.1110229,30.5121002,8.4591675,32.128479,13.221283c1.6197205,4.7547607-22.2028961,3.8940735-24.7184601,5.6562805
				c-2.5195923,1.7515564,34.1416321,40.9158936,33.3042145,46.0152283
				C198.7969055,419.2516174,191.504425,448.0269775,186.3764191,468.1425171z"/>
			<g>
				<path fill="#192D3C" d="M180.5634766,349.8642578c-1.9868164,0-9.9360352-1.1660156-44.2255859-8.4208984
					c-0.3476563-0.0742188-0.5698242-0.4150391-0.496582-0.7626953c0.0742188-0.3486328,0.4135742-0.5703125,0.7631836-0.4970703
					c16.3540039,3.4599609,41.1030273,8.4853516,43.8486328,8.4853516c0.0405273,0,0.0761719-0.0009766,0.1074219-0.0039063
					c0.2241211-0.0917969,0.4897461-0.0527344,0.6796875,0.1210938c0.262207,0.2402344,0.2792969,0.6474609,0.0390625,0.9101563
					C181.2104492,349.7714844,181.1245117,349.8642578,180.5634766,349.8642578z M180.3320313,348.8242188
					c0,0-0.0004883,0.0009766-0.0009766,0.0009766C180.331543,348.8251953,180.331543,348.8242188,180.3320313,348.8242188z
					 M180.3334961,348.8232422c-0.0004883,0-0.0004883,0-0.0004883,0S180.3330078,348.8232422,180.3334961,348.8232422z
					 M180.609375,348.6601563L180.609375,348.6601563L180.609375,348.6601563z"/>
			</g>
			<g>
				<path fill="#192D3C" d="M182.3032227,363.796875c-0.0712891,0-0.144043-0.0117188-0.2148438-0.0371094l-35.5073242-12.5791016
					c-0.3349609-0.1181641-0.5107422-0.4863281-0.3916016-0.8212891c0.1176758-0.3349609,0.4873047-0.5117188,0.8212891-0.3916016
					l35.5073242,12.5791016c0.3349609,0.1181641,0.5107422,0.4863281,0.3916016,0.8212891
					C182.8164063,363.6318359,182.5683594,363.796875,182.3032227,363.796875z"/>
			</g>
			<g>
				<path fill="#192D3C" d="M187.296875,454.3378906c-0.0561523,0-0.112793-0.0068359-0.1694336-0.0224609
					c-0.3427734-0.09375-0.5454102-0.4472656-0.4521484-0.7900391l11.3115234-41.6025391
					c-3.3066406-5.1074219-43.6723633-67.4677734-45.578125-70.6152344
					c-0.1845703-0.3037109-0.0874023-0.6992188,0.2167969-0.8837891c0.3041992-0.1826172,0.699707-0.0869141,0.8837891,0.2177734
					c1.9350586,3.1943359,45.2763672,70.1474609,45.7138672,70.8232422
					c0.0996094,0.1533203,0.1289063,0.3417969,0.0810547,0.5185547l-11.3867188,41.8798828
					C187.8393555,454.1494141,187.5800781,454.3378906,187.296875,454.3378906z"/>
			</g>
			<path fill="#5B806B" d="M220.3468018,427.0142212c-4.1014404-1.3653259-7.85112-4.5662537-9.4300232-8.8776245
				c-2.6920471-7.3868103-2.5884552-17.5975037,7.4452209-22.3650513c3.527771,7.7164307,5.8361969,13.5056458,5.8542786,15.524353
				C224.2384644,413.6619568,222.659317,419.6074829,220.3468018,427.0142212z"/>
			<g>
				<path fill="#192D3C" d="M215.2578125,401.0068359c-0.109375,0-0.2202148-0.0273438-0.3217773-0.0869141l-4.7827148-2.7666016
					c-0.3076172-0.1777344-0.4125977-0.5712891-0.2348633-0.8789063s0.5717773-0.4160156,0.8793945-0.234375l4.7827148,2.7666016
					c0.3076172,0.1777344,0.4125977,0.5712891,0.2348633,0.8789063
					C215.6962891,400.8916016,215.4799805,401.0068359,215.2578125,401.0068359z"/>
			</g>
			<g>
				<path fill="#192D3C" d="M212.3579102,403.8476563c-0.03125,0-0.0629883-0.0019531-0.0947266-0.0068359l-3.7651367-0.5556641
					c-0.3520508-0.0517578-0.5947266-0.3789063-0.5429688-0.7304688c0.0527344-0.3525391,0.3798828-0.5966797,0.7304688-0.5429688
					l3.7651367,0.5556641c0.3520508,0.0517578,0.5947266,0.3789063,0.5429688,0.7304688
					C212.9462891,403.6181641,212.6713867,403.8476563,212.3579102,403.8476563z"/>
			</g>
			<g>
				<path fill="#192D3C" d="M212.0102539,426.7724609c-0.1245117,0-0.25-0.0361328-0.3603516-0.1103516
					c-0.2944336-0.1992188-0.371582-0.5996094-0.171875-0.8945313l3.3251953-4.9101563
					c0.1987305-0.2949219,0.6000977-0.3691406,0.8935547-0.171875c0.2944336,0.1992188,0.371582,0.5996094,0.171875,0.8945313
					l-3.3251953,4.9101563C212.4194336,426.6738281,212.2163086,426.7724609,212.0102539,426.7724609z"/>
			</g>
		</g>
		<g>
			<g>
				<polygon fill="#CA8073" points="166.7927856,481.0488281 162.1666718,506.2044983 192.7672272,510.3703003 
					199.0176392,484.0489807 				"/>
				<path fill="#DF9334" d="M249.1364746,559.2307129h-62.3426361l-4.0233307-8.2106323l-0.8702545,8.2106323h-22.1220398
					c-3.9224091-20.9113159-1.9548798-52.8580627-1.9548798-52.8580627l33.6496277-3.1405945l5.0322876-0.4666443
					C206.0527802,526.7540283,249.1364746,559.2307129,249.1364746,559.2307129z"/>
				<path fill="#C17D34" d="M173.8283539,559.2307129h-14.0501404c-3.9224091-20.9113159-1.9548798-52.8580627-1.9548798-52.8580627
					l33.6496277-3.1405945C180.6264038,513.8137817,171.5959473,535.8348389,173.8283539,559.2307129z"/>
				<g>
					<path fill="#192D3C" d="M177.9145508,551.6582031h-15.0307617c-0.3554688,0-0.6435547-0.2880859-0.6435547-0.6435547
						s0.2880859-0.6435547,0.6435547-0.6435547h15.0307617c0.3554688,0,0.6435547,0.2880859,0.6435547,0.6435547
						S178.2700195,551.6582031,177.9145508,551.6582031z"/>
				</g>
				<g>
					<path fill="#192D3C" d="M229.8886719,551.6582031h-39.659668c-0.3554688,0-0.6435547-0.2880859-0.6435547-0.6435547
						s0.2880859-0.6435547,0.6435547-0.6435547h39.659668c0.3554688,0,0.6435547,0.2880859,0.6435547,0.6435547
						S230.2441406,551.6582031,229.8886719,551.6582031z"/>
				</g>
				<g>
					<path fill="#192D3C" d="M185.5205078,520.5371094c-0.1708984,0-0.3417969-0.0673828-0.4682617-0.2021484
						c-0.2436523-0.2587891-0.2319336-0.6660156,0.0263672-0.9091797c0.2832031-0.2675781,7.0541992-6.5732422,17.9858398-9.5244141
						c0.340332-0.0976563,0.6962891,0.109375,0.7895508,0.453125c0.0922852,0.34375-0.1108398,0.6962891-0.4536133,0.7890625
						c-10.6049805,2.8632813-17.3710938,9.1552734-17.4384766,9.21875
						C185.8378906,520.4785156,185.6791992,520.5371094,185.5205078,520.5371094z"/>
				</g>
				<g>
					<path fill="#192D3C" d="M195.300293,530.1904297c-0.1982422,0-0.3935547-0.0908203-0.5200195-0.2636719
						c-0.2099609-0.2871094-0.1474609-0.6894531,0.1391602-0.8994141c0.0805664-0.0585938,8.1245117-5.9160156,15.5454102-8.7304688
						c0.3291016-0.1259766,0.7036133,0.0410156,0.8295898,0.3730469c0.1264648,0.3330078-0.0410156,0.7041016-0.3735352,0.8300781
						c-7.2548828,2.7519531-15.1621094,8.5087891-15.2412109,8.5664063
						C195.5654297,530.1503906,195.4321289,530.1904297,195.300293,530.1904297z"/>
				</g>
			</g>
			<g>
				<polygon fill="#5B806B" points="211.8062744,472.5019226 204.590683,498.5490417 153.6507416,485.0526733 
					158.7125702,460.6860962 159.3960724,457.3681335 				"/>
				<path fill="#364E41" d="M207.3617706,488.5458679l-2.7710876,10.0031738l-50.9399414-13.4963684l5.0618286-24.3665771
					c7.1763,1.5429077,31.3270721,6.911499,30.9638214,8.6953735
					C189.2936249,471.3300781,190.0775146,483.0509949,207.3617706,488.5458679z"/>
				<g>
					<path fill="#192D3C" d="M174.2871094,486.4169922c-0.034668,0-0.0693359-0.0029297-0.1040039-0.0078125
						c-0.3510742-0.0576172-0.5893555-0.3876953-0.5322266-0.7392578l3.2104492-19.7705078
						c0.0566406-0.3505859,0.3896484-0.5830078,0.7382813-0.5322266c0.3510742,0.0576172,0.5893555,0.3876953,0.5322266,0.7392578
						l-3.2104492,19.7705078C174.8701172,486.1923828,174.597168,486.4169922,174.2871094,486.4169922z"/>
				</g>
				<g>
					<path fill="#192D3C" d="M180.0004883,485.796875c-0.0185547,0-0.0371094-0.0009766-0.0561523-0.0019531
						c-0.3544922-0.03125-0.6162109-0.34375-0.5854492-0.6972656l1.184082-13.5957031
						c0.0307617-0.3544922,0.3374023-0.6123047,0.6967773-0.5859375c0.3544922,0.03125,0.6162109,0.34375,0.5854492,0.6972656
						l-1.184082,13.5957031C180.6118164,485.5439453,180.3310547,485.796875,180.0004883,485.796875z"/>
				</g>
			</g>
		</g>
		<g>
			<g>
				<path fill="#FFFFFF" d="M187.9207153,326.1680298c0.8081512,1.8442688,1.9674683,3.5384216,2.9642181,5.2850952
					c0.9172668,1.6073914,1.6624146,3.3456726,2.9662628,4.6838074c0.5731812,0.5882568,1.405899-0.034668,1.2810516-0.7457275
					c-0.3433075-1.9555054-1.5167542-3.6793213-2.5234222-5.3588257c-1.0111237-1.6869202-2.0522003-3.4194641-3.4241333-4.8395996
					C188.504303,324.4884644,187.5754395,325.3800659,187.9207153,326.1680298L187.9207153,326.1680298z"/>
			</g>
			<g>
				<path fill="#FFFFFF" d="M195.9634094,342.7865295c6.7556915,11.481842,14.2083282,22.291687,19.9902191,34.3595581
					c3.0145569,6.2919617,5.7351532,12.7217102,8.1520691,19.2666016c1.1227264,3.0403137,2.225708,6.1025391,3.1798248,9.2008057
					c1.037674,3.3696594,1.201416,6.8688354,2.1524506,10.2298279c0.1431274,0.5058289,0.7666626,0.4180603,0.942337,0
					c2.3464813-5.5844421-1.4536438-13.1143494-3.3783112-18.4001465
					c-2.3546295-6.4666748-4.9963226-12.8327332-7.9198456-19.0631714
					c-5.9175568-12.6112061-12.7693176-25.9178772-21.8999176-36.533905
					C196.6000214,341.1691589,195.52388,342.0395203,195.9634094,342.7865295L195.9634094,342.7865295z"/>
			</g>
			<g>
				<path fill="#FFFFFF" d="M228.2854919,422.1362915c-0.7204132,2.2221069-1.0564117,4.5501404-1.7817535,6.7794189
					c-0.647049,1.9886169-1.629425,3.8760681-1.7565765,5.9852295c-0.0274811,0.4558716,0.5508575,0.6238403,0.8504944,0.3522644
					c1.6394501-1.4859924,2.3340149-3.6995239,2.9611359-5.7709351c0.6917419-2.2848511,1.3493805-4.7363586,1.2698975-7.1371155
					C229.7991028,421.4515686,228.5602264,421.2889404,228.2854919,422.1362915L228.2854919,422.1362915z"/>
			</g>
			<g>
				<path fill="#FFFFFF" d="M222.9039307,438.6112671c-3.4154053,9.0646667-6.5739594,18.3664551-9.3648376,27.6426697
					c-0.3778992,1.2560425,1.5024719,1.734436,1.940094,0.5348511c3.3179321-9.0949097,6.3599548-18.429657,9.0507202-27.7292786
					C224.8366547,437.9993896,223.2798615,437.6134949,222.9039307,438.6112671L222.9039307,438.6112671z"/>
			</g>
			<g>
				<path fill="#FFFFFF" d="M215.8529358,473.993103c-0.9232178,2.1694031-2.1239929,4.8813782-1.334259,7.2551575
					c0.1347351,0.4049683,0.7002563,0.5133667,0.9281006,0.1212769c1.1485748-1.9764099,1.2421722-4.5673523,1.9471436-6.7267761
					C217.6849518,473.7513123,216.230423,473.1060486,215.8529358,473.993103L215.8529358,473.993103z"/>
			</g>
			<g>
				<path fill="#FFFFFF" d="M213.1616821,486.6624146c-1.5030823,5.4905396-3.2174377,12.1838989-2.7814026,17.9487915
					c0.4033051,5.3321838,3.2591095,10.2507324,6.0628662,14.6571655c0.6928406,1.0888672,2.3792419,0.1176147,1.7372742-1.0155029
					c-2.8305511-4.9961548-5.9247284-10.0810242-5.5995483-16.0502014
					c0.2799683-5.1394958,1.7862244-10.1796875,2.1240082-15.3314209
					C214.7636566,485.974762,213.3917084,485.8221436,213.1616821,486.6624146L213.1616821,486.6624146z"/>
			</g>
			<g>
				<path fill="#FFFFFF" d="M219.3413086,523.4215698c0.9147949,1.1260376,1.8086548,2.274231,2.7584076,3.3709106
					c0.8300781,0.9584961,1.597702,2.0338745,2.8988953,2.3079834c0.2952271,0.0621948,0.7131653-0.1448975,0.6670227-0.5081177
					c-0.1699829-1.3381958-1.0595093-2.1453857-1.9615479-3.081665c-1.0545807-1.0946045-2.1717834-2.1309814-3.265274-3.1865845
					C219.7047882,521.6154785,218.7230682,522.6605835,219.3413086,523.4215698L219.3413086,523.4215698z"/>
			</g>
			<g>
				<path fill="#FFFFFF" d="M229.1479645,534.022522c4.4516602,5.4125977,10.1694794,10.0455933,15.437561,14.6487427
					c3.4279633,2.9953003,7.7825623,8.5629883,12.4831696,9.1339722c1.2313232,0.1495361,1.4364319-1.8154907,0.2878113-2.1265869
					c-3.00914-0.8150635-5.9379272-4.2302246-8.2904053-6.2628784c-2.3355865-2.0180054-4.6469727-4.0631104-6.9542847-6.1133423
					c-3.9640961-3.5223999-7.7314453-7.3775024-11.9886017-10.5438843
					C229.3372192,532.1739502,228.6133881,533.3725586,229.1479645,534.022522L229.1479645,534.022522z"/>
			</g>
		</g>
	</g>
</g>
<g id="RIGHT_LEG">
	<g>
		<g>
			<g>
				<polygon fill="#CA8073" points="98.8301086,479.965271 91.1509857,508.3663025 122.3092957,511.3204651 
					130.6998138,485.6012573 				"/>
				<path fill="#DF9334" d="M179.9234314,559.2307129h-62.3426285l-4.0233307-8.2106323l-0.8702545,8.2106323H90.5651779
					c-3.9224091-20.9113159-1.9548874-52.8580627-1.9548874-52.8580627l33.6496277-3.1405945l5.0322952-0.4666443
					C136.8397369,526.7540283,179.9234314,559.2307129,179.9234314,559.2307129z"/>
				<path fill="#C17D34" d="M104.6153107,559.2307129H90.5651779c-3.9224091-20.9113159-1.9548874-52.8580627-1.9548874-52.8580627
					l33.6496277-3.1405945C111.4133606,513.8137817,102.3829041,535.8348389,104.6153107,559.2307129z"/>
				<g>
					<path fill="#192D3C" d="M108.7016602,551.6582031H93.6708984c-0.3554688,0-0.6435547-0.2880859-0.6435547-0.6435547
						s0.2880859-0.6435547,0.6435547-0.6435547h15.0307617c0.3554688,0,0.6435547,0.2880859,0.6435547,0.6435547
						S109.0571289,551.6582031,108.7016602,551.6582031z"/>
				</g>
				<g>
					<path fill="#192D3C" d="M160.6757813,551.6582031h-39.659668c-0.3554688,0-0.6435547-0.2880859-0.6435547-0.6435547
						s0.2880859-0.6435547,0.6435547-0.6435547h39.659668c0.3554688,0,0.6435547,0.2880859,0.6435547,0.6435547
						S161.03125,551.6582031,160.6757813,551.6582031z"/>
				</g>
				<g>
					<path fill="#192D3C" d="M116.3076172,520.5371094c-0.1708984,0-0.3417969-0.0673828-0.4682617-0.2021484
						c-0.2436523-0.2587891-0.2319336-0.6660156,0.0263672-0.9091797c0.2832031-0.2675781,7.0541992-6.5732422,17.9858398-9.5244141
						c0.3427734-0.0976563,0.6967773,0.109375,0.7895508,0.453125c0.0922852,0.34375-0.1108398,0.6962891-0.4536133,0.7890625
						c-10.6049805,2.8632813-17.3710938,9.1552734-17.4384766,9.21875
						C116.625,520.4785156,116.4663086,520.5371094,116.3076172,520.5371094z"/>
				</g>
				<g>
					<path fill="#192D3C" d="M126.0874023,530.1904297c-0.1982422,0-0.3935547-0.0908203-0.5200195-0.2636719
						c-0.2099609-0.2861328-0.1474609-0.6894531,0.1391602-0.8994141c0.0805664-0.0585938,8.1240234-5.9160156,15.5454102-8.7304688
						c0.328125-0.1259766,0.7036133,0.0410156,0.8295898,0.3730469c0.1264648,0.3330078-0.0410156,0.7041016-0.3735352,0.8300781
						c-7.2553711,2.7519531-15.1621094,8.5087891-15.2412109,8.5664063
						C126.3525391,530.1503906,126.2192383,530.1904297,126.0874023,530.1904297z"/>
				</g>
			</g>
		</g>
		<g>
			<g>
				<path fill="#5B8B72" d="M162.1761017,418.4992981c-0.2099609,2.3599854-2.3499756,8.1199951-5.3699951,15.2700195
					c-8.0899658,19.1399536-22.3999634,48.1699829-22.3999634,48.1699829l-15.390007-10.5200195l-21.6400146-2.9599609
					l14.2000122-50.3200073c0,0-45.1400146-65.8900146-46.7600098-82.3600464
					c-1.6300087-16.4699707,8.5599976-67.8499756,31.710022-59.2199707
					c23.1400146,8.6300049,33.5899582,33.0800171,31.6199875,50.5299683c0,0,3.2000122,7.6100464,7.6400146,18.460022
					c1.25,3.0599976,2.5999756,6.3800049,4.0100098,9.8599854c5.3499756,13.2399902,11.4799805,28.7900391,15.9699707,41.2200317
					c0.7399902,2.0499878,1.4400024,4.0100098,2.0800171,5.8599854
					C160.6161041,410.5093079,162.3561554,416.4892883,162.1761017,418.4992981z"/>
				<path fill="#4A775E" d="M119.0137253,471.4217224l-21.64151-2.9669495l14.202919-50.3174744
					c0,0-45.1426163-65.8920593-46.7636185-82.3615112c-1.6210098-16.4694824,8.5625153-67.8430176,31.710495-59.2144775
					c23.1480255,8.6286011,33.5982895,33.0731201,31.6246262,50.5291443c0,0,3.2033539,7.6106873,7.6404266,18.463562
					c-10.673027,2.1763-30.1443558,6.1448669-33.0658188,6.6680603
					c-4.0404129,0.7235107,29.5506668,11.3711548,30.6987839,16.2673035
					c1.1521454,4.8891296-22.4754639,1.7279358-25.149704,3.2385559
					c-2.6772232,1.4995728,30.0233612,44.0267639,28.696579,49.0211792
					C136.1055756,423.9616394,126.0636215,451.8965759,119.0137253,471.4217224z"/>
				<path fill="#304B3B" d="M155.7661285,396.629303c-4.8099976-0.2300415-15.0599976-0.8500366-15.7199707-1.8599854
					c-0.8800049-1.3099976,2.4099731-11.1700439,1.5299683-12.0500488
					c-0.8699951-0.8800049-19.4999924-4.8200073-19.2799606-8.539978
					c0.2199707-3.7299805,4.3799438-18.6300049,4.3799438-18.6300049l12.7100143-0.4400024
					c0,0,0.1400146,0.1000366,0.4100342,0.2999878C145.1461334,368.6492615,151.2761383,384.1993103,155.7661285,396.629303z"/>
				<g>
					<path fill="#192D3C" d="M124.9799805,353.1533203c-1.4052734,0-7.9775391-1.4736328-43.5131836-12.6767578
						c-0.3393555-0.1074219-0.5273438-0.46875-0.4204102-0.8076172c0.1064453-0.3388672,0.4667969-0.5244141,0.8071289-0.4208984
						c16.1782227,5.1005859,40.8056641,12.640625,42.9291992,12.6943359
						c0.2294922-0.0712891,0.4926758-0.0058594,0.6645508,0.1865234c0.237793,0.2636719,0.2158203,0.6708984-0.0483398,0.9082031
						C125.3398438,353.0908203,125.2700195,353.1533203,124.9799805,353.1533203z M124.5395508,352.0791016
						c0,0-0.0004883,0-0.0009766,0.0009766C124.5390625,352.0791016,124.5395508,352.0791016,124.5395508,352.0791016z
						 M124.5405273,352.078125c0,0,0,0-0.0004883,0C124.5405273,352.078125,124.5405273,352.078125,124.5405273,352.078125z"/>
				</g>
				<g>
					<path fill="#192D3C" d="M125.1157227,367.1748047c-0.0913086,0-0.184082-0.0195313-0.2719727-0.0605469l-34.1240234-15.9550781
						c-0.3222656-0.1503906-0.4609375-0.5332031-0.3105469-0.8554688c0.1499023-0.3232422,0.5336914-0.4609375,0.8554688-0.3105469
						l34.1240234,15.9550781c0.3222656,0.1503906,0.4609375,0.5332031,0.3105469,0.8554688
						C125.5898438,367.0380859,125.3579102,367.1748047,125.1157227,367.1748047z"/>
				</g>
				<g>
					<path fill="#192D3C" d="M121.3271484,457.7734375c-0.0761719,0-0.152832-0.0136719-0.2280273-0.0419922
						c-0.3325195-0.1259766-0.5-0.4970703-0.3740234-0.8300781l15.2832031-40.3115234
						c-2.796875-5.4042969-36.940918-71.3769531-38.5332031-74.6933594
						c-0.1538086-0.3203125-0.019043-0.7050781,0.3012695-0.8583984c0.3217773-0.1533203,0.7055664-0.0185547,0.8588867,0.3017578
						c1.6166992,3.3662109,38.2783203,74.1982422,38.6484375,74.9130859
						c0.0839844,0.1621094,0.0947266,0.3525391,0.0302734,0.5244141l-15.3847656,40.5810547
						C121.831543,457.6152344,121.5869141,457.7734375,121.3271484,457.7734375z"/>
				</g>
				<path fill="#5B806B" d="M156.8034668,433.7725525c-3.950119-1.7556763-7.3725586-5.3043518-8.5269928-9.74823
					c-1.9648285-7.6126099-0.8739624-17.7653809,9.5738525-21.539917
					c2.7647705,8.0214844,4.5023193,14.0068665,4.3250275,16.0178528
					C161.9685516,420.859375,159.8216553,426.6242371,156.8034668,433.7725525z"/>
				<g>
					<path fill="#192D3C" d="M154.3168945,407.3974609c-0.1298828,0-0.2607422-0.0390625-0.3740234-0.1201172l-4.4931641-3.2158203
						c-0.2890625-0.2070313-0.355957-0.609375-0.1489258-0.8984375c0.206543-0.2871094,0.609375-0.3544922,0.8979492-0.1484375
						l4.4931641,3.2158203c0.2890625,0.2070313,0.355957,0.609375,0.1489258,0.8984375
						C154.715332,407.3037109,154.5175781,407.3974609,154.3168945,407.3974609z"/>
				</g>
				<g>
					<path fill="#192D3C" d="M151.1547852,409.9453125c-0.0512695,0-0.1035156-0.0058594-0.1557617-0.0185547l-3.6938477-0.9179688
						c-0.3447266-0.0859375-0.5551758-0.4355469-0.4692383-0.7802734c0.0854492-0.3447266,0.434082-0.5537109,0.7797852-0.4697266
						l3.6938477,0.9179688c0.3447266,0.0859375,0.5551758,0.4355469,0.4692383,0.7802734
						C151.7060547,409.75,151.4433594,409.9453125,151.1547852,409.9453125z"/>
				</g>
				<g>
					<path fill="#192D3C" d="M148.5917969,432.7285156c-0.1445313,0-0.2900391-0.0488281-0.4101563-0.1484375
						c-0.2739258-0.2265625-0.3115234-0.6318359-0.0849609-0.90625l3.7841797-4.5654297
						c0.2270508-0.2724609,0.6323242-0.3105469,0.90625-0.0839844s0.3115234,0.6318359,0.0849609,0.90625l-3.7841797,4.5654297
						C148.9604492,432.6494141,148.7768555,432.7285156,148.5917969,432.7285156z"/>
				</g>
			</g>
			<g>
				<polygon fill="#83BE9C" points="143.9026031,478.2207031 134.2010956,503.4476318 84.805687,485.086731 92.2009506,461.3240967 
					93.2022171,458.0878296 				"/>
				<path fill="#5B8B72" d="M137.9268646,493.7594604l-3.725769,9.6881714L84.805687,485.086731l7.3952637-23.7626343
					c6.9933853,2.2298889,30.5115356,9.9096069,29.9774246,11.6499939
					C121.608902,474.8765259,121.255249,486.6183167,137.9268646,493.7594604z"/>
				<g>
					<path fill="#192D3C" d="M105.2753906,488.4443359c-0.0541992,0-0.109375-0.0068359-0.1645508-0.0214844
						c-0.34375-0.0908203-0.5488281-0.4423828-0.4584961-0.7861328l5.1074219-19.3671875
						c0.0908203-0.34375,0.4414063-0.5498047,0.7866211-0.4580078c0.34375,0.0908203,0.5488281,0.4423828,0.4584961,0.7861328
						l-5.1074219,19.3671875C105.8212891,488.2539063,105.5605469,488.4443359,105.2753906,488.4443359z"/>
				</g>
				<g>
					<path fill="#192D3C" d="M111.0224609,488.3789063c-0.0385742,0-0.078125-0.0029297-0.1181641-0.0107422
						c-0.3496094-0.0654297-0.5800781-0.4013672-0.5151367-0.75l2.4936523-13.4160156
						c0.0649414-0.3496094,0.3945313-0.5830078,0.7504883-0.515625c0.3496094,0.0654297,0.5800781,0.4013672,0.5151367,0.75
						l-2.4936523,13.4160156C111.597168,488.1630859,111.3266602,488.3789063,111.0224609,488.3789063z"/>
				</g>
			</g>
		</g>
		<g>
			<g>
				<path fill="#DBB785" d="M59.4696236,324.4966736c-2.066864,9.9631653,0.4493217,19.3475952,4.6038246,28.438324
					c4.925354,10.7774658,10.7740936,22.0006104,17.3085861,31.8812256c0.6766052,1.0230713,2.1167068,0.1420593,1.62146-0.9477844
					c-8.5772171-18.8749084-25.5446091-37.1075439-22.6681786-59.2546082
					C60.3990936,324.1227722,59.5698929,324.0133362,59.4696236,324.4966736L59.4696236,324.4966736z"/>
			</g>
			<g>
				<path fill="#DBB785" d="M86.5852966,390.6617432c0.7216949,1.1506653,1.5376816,2.1790161,2.4128876,3.2146301
					c0.6851654,0.81073,1.5215988,2.3893433,2.6284866,2.5440674c0.2817154,0.0393982,0.5528183-0.1096497,0.5578766-0.4249573
					c0.0177994-1.1095276-1.225975-1.9985352-1.9152222-2.7821655c-0.9575043-1.088623-1.9038544-2.1291504-3.006897-3.0740356
					C86.9097748,389.8371887,86.3098755,390.2225952,86.5852966,390.6617432L86.5852966,390.6617432z"/>
			</g>
			<g>
				<path fill="#DBB785" d="M94.331749,402.3247375c5.4670868,7.6337891,10.6891632,14.3100586,8.5507507,24.2968445
					c-1.7301788,8.0802612-6.6475067,15.0984192-7.9545975,23.2965698c-0.2008591,1.2598267,1.6262589,1.8349609,1.95858,0.5399475
					c2.3995132-9.3504944,8.2826309-18.1038208,8.7475586-27.887207
					c0.4156036-8.7454224-5.2264862-14.6197815-10.3843994-20.9543762
					C94.8346176,401.1068115,93.9448853,401.7845459,94.331749,402.3247375L94.331749,402.3247375z"/>
			</g>
			<g>
				<path fill="#DBB785" d="M88.1109085,456.6391296c-3.4284286,8.9770813-6.0500336,18.3017273-8.8416214,27.4920044
					c-1.356041,4.4642639-2.6944427,9.9417419,2.2212143,12.6616211c1.2326736,0.6820374,2.2996216-1.1474915,1.1025162-1.8862
					c-5.465477-3.3726807,0.3073349-15.1411743,1.6801376-19.7164307
					c1.8108673-6.0352173,3.6946411-12.0571594,5.1126709-18.1995239
					C89.5803223,456.1481323,88.4106369,455.8542786,88.1109085,456.6391296L88.1109085,456.6391296z"/>
			</g>
			<g>
				<path fill="#DBB785" d="M82.9060516,504.6347046c-0.916153,1.6803284-1.3149643,3.5118103-1.8776855,5.3294067
					c-0.498703,1.6108398-1.2924805,3.2109375-1.0475693,4.9147949c0.0591736,0.4116821,0.6095428,0.4613647,0.8647156,0.2283325
					c1.2620773-1.1526489,1.6081238-3.0350342,2.0756836-4.6213074c0.5415421-1.8372803,1.1063385-3.6299133,1.0560684-5.5610962
					C83.9629059,504.3733521,83.187561,504.1183777,82.9060516,504.6347046L82.9060516,504.6347046z"/>
			</g>
			<g>
				<path fill="#DBB785" d="M79.988739,522.4902954c-2.8522949,11.8905029-1.8234177,25.4758911-0.5140228,37.5200195
					c0.1724854,1.5865479,2.6776886,1.6102905,2.51017,0c-0.6451416-6.2015381-1.0417252-12.4140015-1.0426636-18.651001
					c-0.0009308-6.2203369,0.7879791-12.4398193,0.6837997-18.6474609
					C81.6106033,521.7929688,80.2134476,521.5535278,79.988739,522.4902954L79.988739,522.4902954z"/>
			</g>
		</g>
	</g>
</g>
<g id="LEFT_ARM">
	<g>
		<g>
			<polygon fill="#BB6A5C" points="276.7984619,182.2618561 279.8519287,197.2581024 277.6732483,207.0056763 
				293.8534851,210.1972504 293.8534851,201.632019 299.5427551,189.9898376 			"/>
			<g>
				<path fill="#BF7C34" d="M291.3582458,127.5940857h-4.4924927v1.1385498
					c-5.2662964,2.7095337-9.0474243,10.0214844-9.0474243,18.6416626c0,8.6202393,3.7811279,15.9321899,9.0474243,18.6417236
					v1.1385498h4.4924927c7.4778442,0,13.539917-8.855896,13.539917-19.7802734
					C304.8981628,136.4499817,298.8360901,127.5940857,291.3582458,127.5940857z"/>
				<rect x="286.3070068" y="167.1545868" fill="#DF9334" width="5.6099405" height="23.9215622"/>
				<ellipse fill="#DF9334" cx="286.8657227" cy="147.3743439" rx="13.5399075" ry="19.7802467"/>
				<path fill="#BF7C34" d="M288.3161316,160.4792786c-0.4699707,0.1099854-0.9500122,0.1699829-1.4500122,0.1699829
					c-5.0199585,0-9.0899658-5.9399414-9.0899658-13.2699585c0-7.3400269,4.0700073-13.2800293,9.0899658-13.2800293
					c0.5,0,0.9800415,0.0599976,1.4500122,0.1700439c-4.3399658,1.0099487-7.6499634,6.4899902-7.6499634,13.1099854
					C280.6661682,153.9892883,283.9761658,159.4692688,288.3161316,160.4792786z"/>
				<g>
					<path fill="#5B8972" d="M295.9561462,147.379303c0,2.5800171-0.5,4.9899902-1.3800049,7.0199585
						c-1.3599854,3.1800537-3.6199951,5.460022-6.2600098,6.0800171c-4.3399658-1.0100098-7.6499634-6.4899902-7.6499634-13.0999756
						c0-1.6000366,0.1900024-3.1199951,0.5499878-4.5400391c1.1099854-4.4599609,3.8099976-7.7999878,7.0999756-8.5699463
						C292.6461487,135.2892761,295.9561462,140.7593079,295.9561462,147.379303z"/>
					<path fill="#416050" d="M294.5761414,154.3992615c-1.3599854,3.1800537-3.6199951,5.460022-6.2600098,6.0800171
						c-4.3399658-1.0100098-7.6499634-6.4899902-7.6499634-13.0999756c0-1.6000366,0.1900024-3.1199951,0.5499878-4.5400391
						C282.3961487,151.7693176,288.1961365,156.5892639,294.5761414,154.3992615z"/>
				</g>
			</g>
			<g>
				<path fill="#CA8073" d="M279.394989,177.0514221c-0.0244446-1.417572,1.6754761-4.840271,4.2817688-5.5849304
					s14.520813-2.7924652,17.4994507-1.6754761c2.9786072,1.1169891,2.0477905,26.6214905,1.8616333,27.5523071
					s-16.0101318,2.2339783-16.7547913,1.1169891S279.7673035,198.6464691,279.394989,177.0514221z"/>
				<g>
					<path fill="#192D3C" d="M283.3032227,181.7905273c-0.3115234,0-0.5854492-0.2265625-0.6347656-0.5444336
						c-0.0546875-0.3510742,0.1855469-0.6801758,0.5366211-0.7348633l14.3349609-2.2338867
						c0.3481445-0.0551758,0.6806641,0.1845703,0.7348633,0.5366211c0.0546875,0.3510742-0.1855469,0.6801758-0.5366211,0.7348633
						l-14.3349609,2.2338867C283.3696289,181.7880859,283.3364258,181.7905273,283.3032227,181.7905273z"/>
				</g>
				<g>
					<path fill="#192D3C" d="M285.909668,191.2851563c-0.3217773,0-0.6000977-0.2412109-0.6381836-0.5688477
						c-0.0415039-0.3530273,0.2114258-0.6728516,0.5644531-0.7138672l11.1699219-1.3032227
						c0.3505859-0.0439453,0.6723633,0.2114258,0.7138672,0.5644531s-0.2114258,0.6728516-0.5644531,0.7138672
						l-11.1699219,1.3032227C285.9599609,191.2836914,285.9345703,191.2851563,285.909668,191.2851563z"/>
				</g>
			</g>
			<g>
				<path fill="#CA8073" d="M286.2830505,186.3596344c0,0-5.7710876-11.3560181-7.8189087-11.7283478
					c-2.0477905-0.3723297-5.0264282,2.0478058-5.3987427,4.2817688c-0.372345,2.2339783,6.8880615,13.4038391,9.1220398,13.2176666
					C284.4214172,191.9445648,287.7723694,188.9659271,286.2830505,186.3596344z"/>
				<g>
					<path fill="#192D3C" d="M282.1870117,192.7744141c-0.331543,0-0.612793-0.2539063-0.6411133-0.5898438
						c-0.0292969-0.3544922,0.2338867-0.6655273,0.5878906-0.6953125c1.1157227-0.0927734,2.8046875-1.1323242,3.5400391-2.5307617
						c0.4301758-0.8183594,0.4472656-1.5849609,0.0507813-2.2792969c-0.0463867-0.0893555-3.1660156-6.2114258-5.5776367-9.5200195
						c-0.2094727-0.2871094-0.1464844-0.6894531,0.1411133-0.8989258c0.2875977-0.2099609,0.6899414-0.1459961,0.8989258,0.1411133
						c2.4726563,3.3920898,5.5405273,9.4121094,5.6699219,9.6669922c0.5966797,1.0419922,0.5864258,2.2910156-0.0439453,3.4892578
						c-0.8735352,1.6616211-2.8818359,3.0737305-4.5717773,3.2148438
						C282.2226563,192.7739258,282.2045898,192.7744141,282.1870117,192.7744141z"/>
				</g>
			</g>
		</g>
		<g>
			<g>
				<path fill="#902429" d="M297.3661194,210.3193054c0,0-1.1499634,13.2099609-2.8299561,27.1300049
					c-1.4800415,12.1900024-3.3500366,24.9299927-5.2200317,29.8099976c-0.25,0.6599731-0.5,1.1799927-0.75,1.5299683
					c-4.2299805,5.9899902-20.4299927,8.1099854-27.4799805,5.9899902
					c-0.6000366-0.1799927-1.5499878-0.5599976-2.7800293-1.1199951
					c-13.1800079-6.0100098-59.2400055-32.2600098-70.8399811-46.4299927
					c-7.460022-9.1199951-5.5900269-27.4400024,3.0899658-38.1900024
					c6.0599976-7.5199585,15.4500122-11.3399658,27.3000488-5.7299805c0,0,31.6099854,29.4799805,43.9300079,44.6199951
					l10.9199829-25.0100098L297.3661194,210.3193054z"/>
				<path fill="#6D1C1F" d="M294.5361633,237.4493103c-1.4800415,12.1900024-3.3500366,24.9299927-5.2200317,29.8099976
					c-0.25,0.6599731-0.5,1.1799927-0.75,1.5299683c-4.2299805,5.9899902-20.4299927,8.1099854-27.4799805,5.9899902
					c-0.6000366-0.1799927-1.5499878-0.5599976-2.7800293-1.1199951
					c-13.1800079-6.0100098-59.2400055-32.2600098-70.8399811-46.4299927
					c-7.460022-9.1199951-5.5900269-27.4400024,3.0899658-38.1900024
					c13.4500122-2.3499756,16.5100098,5.7300415,16.5100098,5.7300415
					c0.9299927,17.7199707,46.1699829,51.7699585,48.5100098,53.6399536
					c2.3300323,1.8600464,0.4600372-11.6599731,4.6599884-13.5299683c4.2000122-1.8599854,7.460022,8.8599854,10.2600098,14
					C272.966156,253.4092712,285.2761536,255.3893127,294.5361633,237.4493103z"/>
				<path fill="#D05C79" d="M289.3161316,267.2593079c-0.25,0.6599731-0.5,1.1799927-0.75,1.5299683
					c-4.2299805,5.9899902-20.4299927,8.1099854-27.4799805,5.9899902
					c-0.6000366-0.1799927-1.5499878-0.5599976-2.7800293-1.1199951c0.5700073-4.4599609,2.5800171-9.3599854,8.0599976-12.2600098
					C276.0861511,256.2593079,285.8061218,260.1492615,289.3161316,267.2593079z"/>
			</g>
			<g>
				<path fill="#192D3C" d="M261.8598633,269.8208008c-0.0966797,0-0.1948242-0.0214844-0.2871094-0.0678711l-3.4155273-1.7075195
					c-0.3183594-0.1591797-0.4472656-0.5454102-0.2880859-0.8632813c0.1586914-0.3188477,0.5458984-0.4492188,0.8632813-0.2880859
					l3.4155273,1.7075195c0.3183594,0.1591797,0.4472656,0.5454102,0.2880859,0.8632813
					C262.3232422,269.6904297,262.0957031,269.8208008,261.8598633,269.8208008z"/>
			</g>
			<g>
				<path fill="#192D3C" d="M263.8110352,266.6494141c-0.1391602,0-0.2792969-0.0449219-0.3969727-0.1376953l-3.4150391-2.6831055
					c-0.2797852-0.2192383-0.328125-0.6240234-0.1083984-0.9033203c0.21875-0.2802734,0.6240234-0.3295898,0.9033203-0.1083984
					L264.2089844,265.5c0.2797852,0.2192383,0.328125,0.6240234,0.1083984,0.9033203
					C264.1904297,266.5649414,264.0019531,266.6494141,263.8110352,266.6494141z"/>
			</g>
			<g>
				<path fill="#192D3C" d="M281.6201172,262.9902344c-0.0673828,0-0.1362305-0.0102539-0.2036133-0.0332031
					c-0.3369141-0.1123047-0.5195313-0.4765625-0.4067383-0.8139648l1.4638672-4.3911133
					c0.1123047-0.3369141,0.4765625-0.5219727,0.8139648-0.4067383c0.3369141,0.1123047,0.5195313,0.4765625,0.4067383,0.8139648
					l-1.4638672,4.3911133C282.140625,262.8198242,281.8896484,262.9902344,281.6201172,262.9902344z"/>
			</g>
			<g>
				<path fill="#192D3C" d="M266.0078125,258.3554688c-0.230957,0-0.4541016-0.1245117-0.5698242-0.3432617
					c-4.6621094-8.8334961-4.0073242-26.6503906-3.9770508-27.4047852c0.0136719-0.3549805,0.3017578-0.6513672,0.6689453-0.6171875
					c0.3549805,0.0141602,0.6313477,0.3134766,0.6171875,0.6689453c-0.0073242,0.1811523-0.6708984,18.2250977,3.8295898,26.7524414
					c0.1660156,0.3144531,0.0454102,0.7036133-0.269043,0.8696289
					C266.2119141,258.331543,266.109375,258.3554688,266.0078125,258.3554688z"/>
			</g>
			<g>
				<path fill="#192D3C" d="M257.7119141,254.2080078c-0.3310547,0-0.6123047-0.2539063-0.640625-0.590332
					c-0.7324219-8.7885742,2.0932617-19.987793,2.2138672-20.4599609c0.0878906-0.3442383,0.4394531-0.5512695,0.7827148-0.4643555
					c0.3442383,0.0878906,0.5522461,0.4384766,0.4643555,0.7827148c-0.0288086,0.1137695-2.8920898,11.4643555-2.1777344,20.0351563
					c0.0292969,0.3540039-0.2338867,0.6650391-0.5883789,0.6948242
					C257.7480469,254.2075195,257.7299805,254.2080078,257.7119141,254.2080078z"/>
			</g>
			<g>
				<path fill="#192D3C" d="M293.8540039,216.003418c-0.0595703,0-0.1196289-0.0078125-0.1796875-0.0253906l-20.527832-5.9501953
					c-0.3413086-0.0991211-0.5380859-0.4560547-0.4389648-0.7973633c0.0991211-0.3417969,0.456543-0.5385742,0.7973633-0.4389648
					l20.527832,5.9501953c0.3413086,0.0991211,0.5380859,0.4560547,0.4389648,0.7973633
					C294.3901367,215.8208008,294.1328125,216.003418,293.8540039,216.003418z"/>
			</g>
			<circle fill="#192D3C" cx="289.2283325" cy="221.9707336" r="2.8049703"/>
			<circle fill="#192D3C" cx="287.904541" cy="232.0645599" r="2.8049703"/>
		</g>
		<g>
			<g>
				<path fill="#FFFFFF" d="M235.4999847,271.9852905c1.6117096,0.6950378,3.2148285,1.4165649,4.8378143,2.0847778
					c1.3343964,0.549408,2.6537781,1.2665405,4.1143799,1.0188599c0.3903961-0.0661926,0.4148407-0.5529785,0.21138-0.8006592
					c-0.9148254-1.1135864-2.4291992-1.4273071-3.7517242-1.8739929c-1.6333771-0.5516663-3.2888489-1.0452576-4.9319763-1.5672302
					C235.3210754,270.6377869,234.8444977,271.7026062,235.4999847,271.9852905L235.4999847,271.9852905z"/>
			</g>
			<g>
				<path fill="#FFFFFF" d="M253.8129578,279.2624207c5.7112122,1.4797974,11.7992249,2.099762,17.6506958,2.8176575
					c4.5057373,0.5527954,9.0261536,0.6426086,13.0906677-1.6772156
					c5.6776733-3.2406006,14.3724976-12.8912964,12.7929077-19.8945007c-0.1505432-0.667511-1.1674805-0.6471558-1.3303528,0
					c-1.8554993,7.3728638-7.914032,17.0186768-15.703949,19.1698914
					c-8.1561279,2.2523499-18.0217285-1.5678406-26.3318787-1.6579285
					C253.2714691,278.0126343,253.1177826,279.0823059,253.8129578,279.2624207L253.8129578,279.2624207z"/>
			</g>
			<g>
				<path fill="#FFFFFF" d="M298.2926941,254.9956818c1.2695007-6.305069,3.1876831-12.5279846,3.7452698-18.9538727
					c0.6269226-7.2248993,0.1558838-14.4322968,1.8874817-21.5413971c0.34729-1.425827-1.8569336-2.0342865-2.1987915-0.6061707
					c-1.609314,6.7228241-1.4206238,13.5299225-1.7448425,20.3910522
					c-0.3174438,6.7175598-3.7984619,14.0714874-2.2988892,20.7103882
					C297.750061,255.2928925,298.2310791,255.3015594,298.2926941,254.9956818L298.2926941,254.9956818z"/>
			</g>
			<g>
				<path fill="#FFFFFF" d="M203.7019958,171.6969452c4.8132172,1.5935211,9.1174622,4.3559265,13.8721466,5.9721222
					c0.4387665,0.1491394,0.7715759-0.460434,0.4474335-0.768631c-3.6117859-3.4342651-9.2993622-5.1067047-14.019043-6.2936401
					C203.2928619,170.4283295,203.0139008,171.4691315,203.7019958,171.6969452L203.7019958,171.6969452z"/>
			</g>
			<g>
				<path fill="#FFFFFF" d="M220.8203278,181.377533c3.680191-0.0839539,7.31987,5.2828064,9.6641541,7.5775757
					c2.4919281,2.4393005,4.9802094,4.8823547,7.482605,7.3109283c4.7426605,4.6027679,9.3196106,10.0101624,14.7207642,13.8170166
					c0.6537628,0.4607849,1.6197205-0.4718475,1.1273193-1.1273193
					c-5.0480042-6.7200623-12.2936554-12.4416656-18.3432007-18.2637787
					c-3.0984039-2.9819336-6.0839233-6.4135742-9.5078735-9.019989c-1.7848511-1.3586731-3.1113892-1.8821411-5.283844-1.3294983
					C220.1077728,180.4880829,220.222229,181.3911743,220.8203278,181.377533L220.8203278,181.377533z"/>
			</g>
			<g>
				<path fill="#FFFFFF" d="M258.5924072,211.3559875c1.8617859-0.775528,3.966156-2.4099274,3.8278503-4.6530762
					c-0.0239258-0.3876343-0.4472351-0.5494843-0.7359924-0.3048553c-1.3334045,1.1295471-2.184845,2.6919556-3.5938721,3.7671661
					C257.5681763,210.5637207,257.8432617,211.668045,258.5924072,211.3559875L258.5924072,211.3559875z"/>
			</g>
			<g>
				<path fill="#FFFFFF" d="M266.6734924,201.2615814c1.5054626-2.4822235,2.8155212-5.0079956,3.5558777-7.8275757
					c0.5745239-2.1881104,1.3385925-4.7171173,0.4256592-6.8682709c-0.1480103-0.3487701-0.6777344-0.2879791-0.843811,0
					c-1.0898743,1.889801-0.9351501,4.2537689-1.4351807,6.3573303c-0.6363831,2.6772614-1.4374695,5.3148041-2.6125488,7.8065948
					C265.4779358,201.3351746,266.3162231,201.8506165,266.6734924,201.2615814L266.6734924,201.2615814z"/>
			</g>
			<g>
				<path fill="#FFFFFF" d="M269.471405,179.6895599c-1.9434204-3.1070862-2.7588196-5.559494-1.1053772-8.9895935
					c0.8647461-1.7939911,2.0922852-3.3365784,2.1586304-5.3703003c0.0119019-0.3647461-0.4598999-0.6819153-0.7785034-0.4467316
					c-2.151062,1.5879517-3.9325562,5.3464813-4.3131409,8.0066833c-0.4249573,2.9700623,1.309082,5.3229675,3.0603027,7.5546112
					C268.9317017,181.0028687,269.8416443,180.2814941,269.471405,179.6895599L269.471405,179.6895599z"/>
			</g>
			<g>
				<path fill="#FFFFFF" d="M307.0227051,165.5666351c1.2871704,5.7030029,2.1777039,11.4979095,2.4360657,17.3434753
					c0.2356567,5.3320007-0.5332031,10.569397-0.5385437,15.8773041c-0.0008545,0.8795013,1.2804871,1.0479736,1.5243835,0.2062988
					c3.0770569-10.618927,1.1697388-23.440155-1.9806824-33.8244019
					C308.184082,164.2469177,306.8109131,164.6283112,307.0227051,165.5666351L307.0227051,165.5666351z"/>
			</g>
			<g>
				<path fill="#FFFFFF" d="M306.0328979,202.5814819c-0.7680969,1.2812805-1.5769958,2.5320892-2.3963013,3.7808838
					c-0.7580872,1.155426-1.6066895,2.2575989-1.8173523,3.6518555c-0.0651245,0.4310455,0.3265076,0.7958221,0.7459106,0.5734558
					c1.2382813-0.6565094,1.9593506-1.8149109,2.6944275-2.9720154c0.8455811-1.3310547,1.6016541-2.7258301,2.3451233-4.1154022
					C308.1568909,202.4682465,306.6373596,201.5731812,306.0328979,202.5814819L306.0328979,202.5814819z"/>
			</g>
			<g>
				<path fill="#FFFFFF" d="M269.1332092,158.3473053c-1.0583801-10.0041962-4.5455017-22.3459625,4.1760864-30.0424194
					c3.398407-2.9989548,7.8440552-4.6611481,12.239624-5.5179138c4.8716431-0.9495621,8.33078,0.0082779,12.7890625,1.800705
					c0.477417,0.1919403,0.8392944-0.4295425,0.6275635-0.8163071c-4.4118958-8.0589905-20.5322876-2.0605164-25.8721313,1.9895935
					c-10.6742554,8.0960617-7.290802,21.5020218-5.1081848,32.7417068
					C268.1091309,159.1407013,269.2028809,159.0059052,269.1332092,158.3473053L269.1332092,158.3473053z"/>
			</g>
			<g>
				<path fill="#FFFFFF" d="M301.1375732,126.7171478c1.4924622,2.7700195,2.3675842,5.865387,4.0707397,8.5101318
					c0.199707,0.3100739,0.7515869,0.2106171,0.7319946-0.1982574c-0.157196-3.2830353-1.966156-6.2490845-3.6776428-8.9695206
					C301.8161316,125.3497238,300.738678,125.9767609,301.1375732,126.7171478L301.1375732,126.7171478z"/>
			</g>
			<g>
				<path fill="#FFFFFF" d="M307.1653442,142.3415222c0.1141357,7.3876343-0.6085815,14.1202393-1.7550049,21.3881836
					c-0.1207581,0.7655182,0.865387,1.2982941,1.3133545,0.5536804c3.8170776-6.3447876,2.5939636-14.9665375,1.7254944-21.941864
					C308.3502808,141.5472565,307.1522217,141.4911499,307.1653442,142.3415222L307.1653442,142.3415222z"/>
			</g>
		</g>
	</g>
</g>
<g id="HEAD">
	<g>
		<g>
			<polygon fill="#BB6A5C" points="184.1429443,169.2442932 177.8891144,164.7317352 186.3152466,150.8710327 
				187.5226593,148.8800812 193.6497345,153.8689423 188.1677246,162.7385254 			"/>
			<path fill="#192D3C" d="M188.1677246,162.7385254c-2.4126587-3.931076-2.3285828-8.656601-1.852478-11.8674927
				l1.2074127-1.9909515l6.1270752,4.9888611L188.1677246,162.7385254z"/>
		</g>
		<g>
			<g>
				<path fill="#CA8073" d="M199.8306885,160.9827576c-1.1090698,0.9155273-2.5472412,1.327713-4.1190033,1.3088531
					c-3.2444458-0.0062561-7.0371246-1.8275604-9.5487671-4.7642517c-0.9434509-1.0922699-1.6104279-2.2982941-2.087204-3.5134583
					c-1.4688416-3.5932159-1.2589111-7.1354523-1.2589111-7.1354523c-0.1822968-2.1053467-0.1118622-4.0091248,0.3084259-5.6616821
					c0.5305786-2.081192,1.6195068-3.7297516,3.4404449-4.7929535c1.077179-0.6187286,2.4071198-1.0359497,4.0242157-1.2137909
					c7.2489014-0.7836914,10.958847,4.9562988,11.2904968,10.4579163
					C202.2120972,151.1695557,203.2415924,158.1858368,199.8306885,160.9827576z"/>
				<path fill="#BB6A5C" d="M195.7116852,162.2916107c-3.2444458-0.0062561-7.0371246-1.8275604-9.5487671-4.7642517
					c-0.9434509-1.0922699-1.6104279-2.2982941-2.087204-3.5134583c-1.4688416-3.5932159-1.2589111-7.1354523-1.2589111-7.1354523
					c-0.1822968-2.1053467-0.1118622-4.0091248,0.3084259-5.6616821c0.5305786-2.081192,1.6195068-3.7297516,3.4404449-4.7929535
					c0.094574,0.1038055,0.1703186,0.2248383,0.2181396,0.3626556c0.6703186,1.9110718,2.3124084,3.7227936,2.3124084,3.7227936
					S189.2919159,156.1272888,195.7116852,162.2916107z"/>
			</g>
			<path fill="#192D3C" d="M186.970108,151.511734l0.0509796,2.5355835l-2.9481964-0.0321198
				c-1.463623-3.598114-1.2536774-7.1405334-1.2536774-7.1405334c-0.1868591-2.1022491-0.117981-4.0079956,0.3041382-5.6557465
				c1.9189148-0.1632233,4.9713287,3.3437042,4.9713287,3.3437042l0.2081909,5.853302L186.970108,151.511734z"/>
			<g>
				<path fill="#B9233E" d="M202.1891174,143.3052521c0,0-5.0961761,2.3027802-11.6701813,2.5665283
					c-2.9071808,0.1269226-6.0939178-0.1477509-9.2626343-1.1988983c0,0-0.2114258-1.2842407-0.16362-3.0896606
					c0.0624237-4.0642853,1.3431854-10.8104706,9.0361023-11.6187439c0.0545197-0.0065155,0.1180725-0.012558,0.1726074-0.0190582
					c7.8781281-0.709259,10.5357971,5.3071747,11.4251709,9.506134
					C202.1949463,141.6244202,202.1891174,143.3052521,202.1891174,143.3052521z"/>
				<path fill="#8E2429" d="M190.5189362,145.8717804c-2.9071808,0.1269226-6.0939178-0.1477509-9.2626343-1.1988983
					c0,0-0.2114258-1.2842407-0.16362-3.0896606c0.0624237-4.0642853,1.3431854-10.8104706,9.0361023-11.6187439
					c0.0545197-0.0065155,0.1180725-0.012558,0.1726074-0.0190582
					C188.5329742,136.0995178,189.342453,141.8222046,190.5189362,145.8717804z"/>
				<path fill="#DF9334" d="M202.1891174,143.3052521c0,0-5.4283905,2.4500122-12.2945709,2.5826721
					c-2.7324677,0.0627747-5.7006683-0.2469635-8.6382446-1.2150421c0,0-0.2114258-1.2842407-0.16362-3.0896606
					c1.8899384,0.3680573,4.7092438,0.7702789,7.9098053,0.7473602c3.9864502-0.0134583,8.5816193-0.6765442,12.7240753-2.8790283
					C202.1949463,141.6244202,202.1891174,143.3052521,202.1891174,143.3052521z"/>
				<path fill="#BF7C34" d="M189.8945465,145.8879242c-2.7324677,0.0627747-5.7006683-0.2469635-8.6382446-1.2150421
					c0,0-0.2114258-1.2842407-0.16362-3.0896606c1.8899384,0.3680573,4.7092438,0.7702789,7.9098053,0.7473602
					C189.2491302,143.634552,189.5644226,144.824173,189.8945465,145.8879242z"/>
				<path fill="#B9233E" d="M176.1331482,142.959671L176.1331482,142.959671
					c-0.4488831,0.8475342-0.1989288,1.8963623,0.5940399,2.4358063c2.3475189,1.5969391,7.8263245,4.3201141,16.6057739,2.9834747
					c8.3587494-1.272583,12.0826874-4.1631012,13.5870056-5.8301849c0.5844269-0.6476746,0.6224518-1.6149292,0.0927734-2.3080902
					h-0.0000153c-0.6425323-0.8408356-1.8550873-0.9484253-2.6435242-0.2425842
					c-1.8268127,1.6354065-5.5477753,4.1516724-11.5223541,4.6534729
					c-6.8477478,0.5751343-11.8423767-1.3163605-14.230545-2.5084381
					C177.7097626,141.6906281,176.6073608,142.0643005,176.1331482,142.959671z"/>
			</g>
			<path fill="#BB6A5C" d="M185.605545,151.2180634c0,0-2.0912933-3.4002686-4.7879181-1.7739258
				c-2.69664,1.6263428-0.3958435,10.9922028,6.6366882,7.2783966L185.605545,151.2180634z"/>
		</g>
		<g>
			<g>
				<path fill="#FFFFFF" d="M204.1422729,164.3640594c6.0320435-0.7646637,7.5534821-9.4511261,6.7499084-14.2904663
					c-0.1253815-0.7550049-1.3806915-0.7449493-1.5151367,0c-0.4398804,2.4376373-0.163208,4.9228516-0.8659668,7.3343048
					c-0.8009186,2.7483063-2.4077911,4.2733612-4.6589508,5.8849487
					C203.4483337,163.5819244,203.5141754,164.4436798,204.1422729,164.3640594L204.1422729,164.3640594z"/>
			</g>
			<g>
				<path fill="#FFFFFF" d="M209.8646851,141.7712708c0.151001,0.8890839,0.1522522,1.7732239,0.0145721,2.6641693
					c-0.1032257,0.6678925-0.4039917,1.2875671-0.2906189,1.9638367c0.0381927,0.2277527,0.3204803,0.2388916,0.464386,0.1226044
					c0.6181335-0.4995575,0.6945801-1.4316254,0.7704163-2.1802216c0.094162-0.9297638-0.0274048-1.8623962-0.2566223-2.7639618
					C210.4493866,141.1157837,209.7876587,141.317749,209.8646851,141.7712708L209.8646851,141.7712708z"/>
			</g>
			<g>
				<path fill="#FFFFFF" d="M209.7705688,137.355011c-3.2559357-8.7747345-14.4710236-18.325325-24.1299744-12.6520081
					c-9.9964905,5.871582-17.5523071,18.2249756-15.2727509,29.8711395
					c0.2436218,1.2447052,2.1488953,0.7184296,1.9031372-0.5246735
					c-2.0447388-10.3428802,4.1502075-18.9719543,11.7229614-25.2689362
					c5.0000458-4.157692,10.3378601-4.0211563,15.822525-0.8482819c3.8937225,2.2525024,7.0318146,5.8088379,9.0435028,9.8066559
					C209.1101685,138.2360992,209.968399,137.8881836,209.7705688,137.355011L209.7705688,137.355011z"/>
			</g>
			<g>
				<path fill="#FFFFFF" d="M165.7825623,156.7581177c-0.496994,0.3859558-1.0530701,0.7145081-1.6286011,0.9682159
					c-0.5711212,0.2517548-1.1401825,0.3242645-1.5068512,0.8702545c-0.2702484,0.4024353,0.0297241,0.8458099,0.406601,0.9994354
					c0.6597748,0.2689209,1.4428711-0.2063599,2.0224915-0.5166473c0.6414032-0.343338,1.2279663-0.7750854,1.7767639-1.2508698
					C167.6036835,157.1776733,166.5316467,156.1763916,165.7825623,156.7581177L165.7825623,156.7581177z"/>
			</g>
		</g>
	</g>
</g>
<g id="BODY">
	<g>
		<g>
			<path fill="#BB233D" d="M221.4860992,220.2093201c-1.75,4.7199707-6.0299683,12.9899902-11.2299805,22.3499756
				c-12.7799683,23.0100098-31.1099854,52.6500244-31.1099854,52.6500244l7.8699951,24.7999878
				c-12.710022,7.2600098-29.039978,12.7000122-29.039978,12.7000122l-13.9100342-20.5700073l-9.6799927,23.5899658
				c-68.3399582-10.2799683-77.9000244-34.1400146-77.9000244-34.1400146
				c12.450016-44.7399902,27.950016-78.9400024,39.2600136-100.4699707
				c0.1900024-0.3699951,0.3900146-0.7399902,0.5800171-1.0999756c9.4400024-17.8600464,26.7600098-30.25,46.7200241-33.3500366
				c12.4799805-1.9400024,21.2949219-1.0018005,24.414917-0.9218445l0.3650513,4.9118347l31.4099731,5.9000244l0.5079651-3.1728668
				c11.0400391,5.0599976,18.1120911,9.9228668,18.1120911,9.9228668S227.5361481,203.879303,221.4860992,220.2093201z"/>
			<path fill="#902429" d="M201.9761505,257.1192932c-11.2000122,19.2799683-22.8300171,38.0900269-22.8300171,38.0900269
				l7.8699951,24.7999878c-12.710022,7.2600098-29.039978,12.7000122-29.039978,12.7000122l-13.9100342-20.5700073
				l-9.6799927,23.5899658c-68.3399582-10.2799683-77.9000244-34.1400146-77.9000244-34.1400146
				c12.450016-44.7399902,27.950016-78.9400024,39.2600136-100.4699707
				c-3.75,36.4799805,23.8900146,54.2999878,40.9399948,62.5299683
				c15.5599976,7.5200195,49.1900024,1.5800171,73.5700073-21.0899658
				C207.6561432,247.2392883,204.8261261,252.1993103,201.9761505,257.1192932z"/>
			<path fill="#6D1C1F" d="M201.9761505,257.1192932c-11.2000122,19.2799683-22.8300171,38.0900269-22.8300171,38.0900269
				c-33.4299927,9.8099976-73.1500168-3.0500488-34.9700317-9.0100098
				C169.4761505,282.2392883,189.0161285,269.7292786,201.9761505,257.1192932z"/>
			<g>
				<path fill="#192D3C" d="M147.9091797,315.3134766c-0.0161133,0-0.0322266-0.0009766-0.0488281-0.0019531
					c-0.3544922-0.0263672-0.6201172-0.3359375-0.5932617-0.6904297l1.3798828-18.2851563
					c0.0068359-0.0952148,0.0351563-0.1879883,0.0830078-0.2709961l23.4614258-41.0571289
					c0.1757813-0.309082,0.5693359-0.4155273,0.8779297-0.2392578s0.4160156,0.5693359,0.2392578,0.8779297l-23.3891602,40.9311523
					L148.550293,314.71875C148.5249023,315.0566406,148.2426758,315.3134766,147.9091797,315.3134766z"/>
			</g>
			<circle fill="#192D3C" cx="168.7014923" cy="274.7251587" r="2.6320393"/>
			<circle fill="#192D3C" cx="158.5745087" cy="290.0454712" r="2.6320393"/>
			<g>
				<g>
					<path fill="#192D3C" d="M79.7470703,304.3388672c-0.0571289,0-0.1147461-0.0078125-0.1723633-0.0234375
						c-0.3422852-0.0947266-0.543457-0.4492188-0.4482422-0.7919922
						c12.2080078-44.1064453,28.5292969-73.425293,28.6928711-73.7163086
						c0.1748047-0.3105469,0.5668945-0.4189453,0.8759766-0.2460938c0.3100586,0.1738281,0.4204102,0.5664063,0.2460938,0.8759766
						c-0.1625977,0.2900391-16.4106445,29.4838867-28.574707,73.4301758
						C80.2880859,304.1523438,80.0288086,304.3388672,79.7470703,304.3388672z"/>
				</g>
				<g>
					<path fill="#192D3C" d="M73.3828125,285.25c-0.2885742,0-0.5507813-0.1948242-0.6240234-0.4873047
						c-0.0859375-0.3447266,0.1235352-0.6943359,0.4682617-0.7807617c0.4858398-0.121582,6.0917969-1.7333984,13.1894531-3.7744141
						c16.4296875-4.7246094,41.2583008-11.8642578,42.9360352-12.1435547
						c0.3569336-0.0576172,0.6831055,0.1787109,0.7407227,0.5288086c0.0585938,0.3510742-0.1782227,0.6826172-0.5288086,0.7407227
						c-1.6049805,0.2675781-27.3876953,7.6811523-42.7919922,12.1113281
						c-7.3876953,2.1240234-12.7255859,3.6591797-13.2329102,3.7861328C73.4873047,285.2441406,73.4345703,285.25,73.3828125,285.25
						z"/>
				</g>
				<g>
					<path fill="#192D3C" d="M78.1552734,291.215332c-0.2885742,0-0.5507813-0.1948242-0.6240234-0.4873047
						c-0.0859375-0.3447266,0.1235352-0.6943359,0.4682617-0.7807617
						c1.6142578-0.4038086,32.5722656-3.8457031,33.8891602-3.9921875c0.3530273-0.0375977,0.6713867,0.215332,0.7109375,0.5683594
						c0.0390625,0.3535156-0.215332,0.671875-0.5683594,0.7109375c-8.9482422,0.9941406-32.4487305,3.644043-33.7192383,3.9619141
						C78.2592773,291.2094727,78.2070313,291.215332,78.1552734,291.215332z"/>
				</g>
			</g>
		</g>
		<g>
			<path fill="#8E2429" d="M197.3264771,221.489975c1.506485,7.9578094,0.4960022,19.5041504,0.4960022,19.5041504
				l-21.531662,13.7109985l-24.0522308-20.4534149c0.4547119-7.4078064,5.0841064-22.2315979,5.0841064-22.2315979
				l-10.7434845-4.6286316c0.8447113-24.1335144,11.3752747-39.6938019,11.3752747-39.6938019
				c3.3538971-0.088089,6.5808563,0.0144653,9.6785126,0.271286c12.5475159,0.9991913,22.8386688,4.3804321,29.6264343,7.2631073
				c6.0895844,2.5987396,5.6885834,2.4119568,9.0140076,4.5492096c2.6958618,10.3244476-0.2684784,40.0339661-0.2684784,40.0339661
				L197.3264771,221.489975z"/>
			<path fill="#5B8972" d="M175.6521301,255.636673c-8.5856018-29.7727203-8.0193176-81.1281738-7.5914917-89.2937927
				c12.7430725,0.9033661,23.163269,4.3541107,30.028183,7.3203583
				C190.9171906,215.6279449,175.6521301,255.636673,175.6521301,255.636673z"/>
			<path fill="#FFFFFF" d="M206.496109,216.8492737l-8.7399902,3.0900269
				c1.4100342,8.289978,0.2200317,17.4299927,0.2200317,17.4299927l-22.3240204,18.2673798l-23.3559723-25.2873993
				c0.539978-7.7399902,5.4299927-19.8099976,5.4299927-19.8099976l-10.3400269-5.4599609
				c1.1400146-25.210022,10.117691-40.2054901,10.117691-40.2054901c2.1900024-0.2399902,6.9272919-0.1163788,10.8873138,0.4536285
				c-0.4200439,8.0599976-0.7650146,57.8418274,7.7050171,87.2218323c0,0,14.6979675-38.6428375,21.7779236-80.0628815
				c3.6500244,1.1900024,9.0400391,4.3500366,9.0400391,4.3500366
				C209.4940643,187.586441,206.496109,216.8492737,206.496109,216.8492737z"/>
			<g>
				<path fill="#192D3C" d="M176.6181641,240.0249023c-0.0385742,0-0.0776367-0.003418-0.1171875-0.0112305
					c-0.331543-0.0644531-0.5478516-0.3857422-0.4833984-0.7167969c4.3071289-22.1225586,6.2768555-59.9936523,6.2958984-60.3735352
					c0.0170898-0.3369141,0.2915039-0.605957,0.6420898-0.5795898c0.3369141,0.0175781,0.5966797,0.3046875,0.5795898,0.6420898
					c-0.0195313,0.3808594-1.9931641,38.3369141-6.3173828,60.5444336
					C177.1611328,239.8222656,176.9052734,240.0249023,176.6181641,240.0249023z"/>
			</g>
			<path fill="#5B8972" d="M176.4443207,161.2041321c3.2353973-0.6418915,12.3056946,0.7952271,15.4700928,4.244751
				c0,0,0.1940308,4.272934-0.3792114,6.8337097c0,0-1.8092957,1.8392181-7.3720398,1.5557098
				c-5.5627441-0.283493-10.8593292-5.3696899-10.8593292-5.3696899L176.4443207,161.2041321z"/>
			<g>
				<g>
					<path fill="#B9233E" d="M194.3553772,174.7676849c-0.3231812,1.0418854-0.7394562,1.8345947-1.1569977,2.0430603
						c-1.4133453,0.6683044-7.2581635-2.662384-7.2581635-2.662384s-0.8583527-2.1240082,0.4825287-4.203598
						c0,0,0.2292328-0.1110687,0.6256866-0.2880096c1.6235504-0.7100372,5.9662628-2.5001984,7.2397614-1.7531891
						C195.3978729,168.5683136,195.1115417,172.3288269,194.3553772,174.7676849z"/>
					<path fill="#8E2429" d="M194.3553772,174.7676849c-0.3231812,1.0418854-0.7394562,1.8345947-1.1569977,2.0430603
						c-1.4133453,0.6683044-7.2581635-2.662384-7.2581635-2.662384s-0.8583527-2.1240082,0.4825287-4.203598
						c0,0,0.2292328-0.1110687,0.6256866-0.2880096c1.3181763,1.0822296,1.5672913,2.3929901,1.7776642,3.618576
						C189.0292053,174.4368286,192.7696686,176.1092224,194.3553772,174.7676849z"/>
				</g>
				<g>
					<path fill="#B9233E" d="M186.963501,173.6339722c-0.7773438,1.8367157-2.1850128,2.2579803-3.9477844,1.9358215
						c-2.2492218-0.4059601-4.1203308-1.3292999-3.6853333-4.7259827c0.2340546-1.8490601,0.6919708-3.0652313,1.4968262-3.6892242
						c0.6806946-0.533844,1.5961761-0.655365,2.8199921-0.4065399c2.3552246,0.4722748,4.3330841,1.6859131,3.802475,5.0687256
						C187.340332,172.5322571,187.1754913,173.1330261,186.963501,173.6339722z"/>
					<path fill="#8E2429" d="M186.963501,173.6339722c-0.7773438,1.8367157-2.1850128,2.2579803-3.9477844,1.9358215
						c-2.2492218-0.4059601-4.1203308-1.3292999-3.6853333-4.7259827c0.2340546-1.8490601,0.6919708-3.0652313,1.4968262-3.6892242
						c-0.3833313,1.8950806-0.7274933,5.6397247,2.2555695,6.4954529
						C185.00914,174.19104,186.219986,173.9890594,186.963501,173.6339722z"/>
				</g>
				<path fill="#B9233E" d="M180.7574463,168.8186493c0,0-5.286911-4.5069733-7.0600433-4.016037
					s-2.4581909,7.8580017-1.2643738,8.8757019s7.7037048-0.6770782,7.7037048-0.6770782
					S181.517334,171.1744385,180.7574463,168.8186493z"/>
			</g>
		</g>
		<g>
			<g>
				<path fill="#DBB785" d="M78.6565552,221.3012848c-12.9700546,25.7122498-23.1356773,52.5692596-32.7885017,79.6653595
					c-0.4205513,1.1805115,1.4957237,1.7187805,1.8846703,0.5195618
					c8.829216-27.2221985,20.1217041-53.5993042,31.5325623-79.8174133
					C79.4677811,221.2494812,78.8716049,220.8749695,78.6565552,221.3012848L78.6565552,221.3012848z"/>
			</g>
			<g>
				<path fill="#DBB785" d="M52.7470741,306.9067688c0.5701027,1.3749084,1.2424049,2.7147522,2.1762695,3.8818359
					c0.7534103,0.9415588,1.822567,2.4832153,3.1659698,2.2832947c0.2411537-0.0358887,0.4389153-0.3308716,0.4290657-0.5635376
					c-0.0483475-1.1419983-1.381691-1.9026184-2.1077118-2.6820984c-0.974678-1.0464478-1.8633232-2.1426086-2.612915-3.3624573
					C53.4727821,305.934967,52.4881058,306.282196,52.7470741,306.9067688L52.7470741,306.9067688z"/>
			</g>
			<g>
				<path fill="#FFFFFF" d="M154.4622345,159.4039764c-11.5173492-0.7325439-23.3611298,2.8873596-33.4738922,8.2237549
					c-9.8041306,5.1735382-20.3227692,13.0087128-25.3650436,23.140152
					c-0.2247849,0.4516449,0.3392181,0.9457397,0.7222748,0.5572815
					c7.9293289-8.0410919,15.0273132-15.8823395,25.1290131-21.3561401
					c10.3774033-5.6231995,21.3668289-7.841629,32.987648-9.0512848
					C155.4207611,160.8179779,155.4498291,159.4667969,154.4622345,159.4039764L154.4622345,159.4039764z"/>
			</g>
			<g>
				<path fill="#FFFFFF" d="M91.3260651,197.6734619c-2.2961502,2.4792786-4.4952621,5.4876556-5.9054337,8.5596771
					c-0.2167664,0.4722137,0.3270721,0.9479675,0.7373199,0.5689087c2.4738159-2.2857208,4.6628647-5.3183899,6.296669-8.2578125
					C92.8409195,197.8492279,91.8960495,197.0580292,91.3260651,197.6734619L91.3260651,197.6734619z"/>
			</g>
			<g>
				<path fill="#DBB785" d="M78.8116455,203.7681885c-7.2943039,11.8175964-14.1017838,25.3682251-17.7789497,38.8216705
					c-0.1691055,0.6187134,0.7353287,1.025589,1.0506783,0.4429626c6.759613-12.4886932,11.1047668-25.980957,18.5979156-38.1717834
					C81.4130936,203.6704407,79.5429382,202.5834198,78.8116455,203.7681885L78.8116455,203.7681885z"/>
			</g>
			<g>
				<path fill="#FFFFFF" d="M98.218277,175.9011383c-4.3373947,5.4549866-8.2506866,11.2149048-12.1959991,16.956665
					c-0.7905731,1.1505585,1.0870132,2.2385101,1.8696442,1.0928497c3.8871307-5.690155,7.8188324-11.3469696,11.3044357-17.2948456
					C99.5420227,176.0659485,98.6696625,175.3334351,98.218277,175.9011383L98.218277,175.9011383z"/>
			</g>
			<g>
				<path fill="#DBB785" d="M58.1268921,246.6208038c-1.341404,3.5049591-3.6032295,6.9594421-4.5307198,10.585495
					c-0.1402054,0.5481567,0.5234222,0.9147949,0.9287682,0.5406494c2.8149376-2.5982666,4.2024765-7.0870514,5.1909866-10.6880798
					C60.0020409,246.0165863,58.498867,245.6488647,58.1268921,246.6208038L58.1268921,246.6208038z"/>
			</g>
			<g>
				<path fill="#DBB785" d="M44.7071877,280.2514648c-2.7833061,8.0168762-7.7818565,17.846344-4.5803146,26.2660828
					c2.5812683,6.7884827,6.5537453,16.5523987,13.4103889,20.059082c0.8670273,0.4434509,1.6129227-0.5848999,1.0100899-1.3091125
					c-2.4911041-2.9926758-5.1603355-5.4757385-7.1713982-8.881134c-1.7465897-2.95755-3.2357979-6.1102295-4.6191063-9.2538452
					c-2.3090134-5.2473145-1.4906921-9.0769043,0.0192413-14.4122009c1.1390686-4.0248413,2.2218094-8.0519714,3.1875458-12.1224976
					C46.1586838,279.7757263,44.9808617,279.4631958,44.7071877,280.2514648L44.7071877,280.2514648z"/>
			</g>
		</g>
		<g>
			<g>
				<path fill="#FFFFFF" d="M184.4541473,296.9147644c0.6600189,4.5630798,2.0683594,9.0510559,3.629837,13.3802795
					c1.2092896,3.3527527,2.3843689,7.1895752,4.7138214,9.9284973c0.4417114,0.5193481,1.1388702-0.0556946,1.040863-0.6059265
					c-0.7030182-3.9468994-2.896347-7.64151-4.25737-11.4238892c-1.3843231-3.8471375-2.4087982-7.7978821-3.7044067-11.6712036
					C185.568512,295.6006165,184.320755,295.9925232,184.4541473,296.9147644L184.4541473,296.9147644z"/>
			</g>
			<g>
				<path fill="#FFFFFF" d="M187.4968262,291.3058167c1.3087311-2.4880676,3.2524567-4.9346313,3.9427185-7.682251
					c0.0748901-0.2980957-0.2885437-0.665741-0.5770416-0.4436035c-2.3496857,1.809082-3.5089722,4.9382935-4.5739594,7.6164551
					C186.0111847,291.493866,187.1515961,291.9620972,187.4968262,291.3058167L187.4968262,291.3058167z"/>
			</g>
			<g>
				<path fill="#FFFFFF" d="M196.1000671,278.46875c3.8319092-5.7375488,8.7925262-10.6264648,12.9477081-16.1201477
					c0.6138153-0.8115234,1.2797089-2.2860413,2.0700378-2.9197083c2.1313782-1.7088318,4.0880737,0.4363403,6.2847748,1.6107483
					c3.878418,2.0734558,7.7064514,4.5256958,11.8839111,5.933075c0.8688812,0.2927246,1.1983643-0.8950195,0.5758362-1.3658752
					c-2.4889069-1.8825684-5.335144-3.1926575-8.0954285-4.6384277c-2.6065063-1.3652344-5.4724731-3.412262-8.2736511-4.3335571
					c-2.0348511-0.6692352-2.4755554-0.3475952-3.9036255,1.3284302
					c-5.2507935,6.1625366-10.8612976,12.6558228-15.2599335,19.4706421
					C193.6099854,278.5489807,195.3716278,279.5594482,196.1000671,278.46875L196.1000671,278.46875z"/>
			</g>
		</g>
	</g>
</g>
<g id="RIGHT_ARM">
	<g>
		<g>
			<path fill="#CC8273" d="M171.6461334,377.2992859l-5.2000122,16.3200073
				c-0.4899902,1.5200195-2.0100098,2.460022-3.5899658,2.210022c-2.6300049-0.4100342-6.8800049-0.9900513-10.7200317-1.5
				c-1.7700195-0.2400513-3.460022-0.460022-4.8499756-0.6400146c-2.0100098-0.2600098-3.4100342-2.1199951-3.1199951-4.1199951
				c0.3299561-2.2000122,0.7699585-4.960022,1.25-7.0599976c0.3800049-1.6799927-0.6600342-3.3600464-2.3200073-3.8099976
				l-16.1600266-4.3900146c-1.289978-0.3499756-2.2399902-1.460022-2.3699951-2.789978l-2.2099609-21.5400391l24.0599899-0.6099854
				l0.3299561,5.6400146l0.1500244,2.539978c0.0700073,1.3200073,0.9400024,2.4500122,2.1799927,2.8800049l17.0200195,5.8300171
				C170.6361237,367.8193054,173.1061554,372.7192688,171.6461334,377.2992859z"/>
			<path fill="#BB6A5C" d="M152.1361237,394.3293152c-1.7700195-0.2400513-3.460022-0.460022-4.8499756-0.6400146
				c-2.0100098-0.2600098-3.4100342-2.1199951-3.1199951-4.1199951c0.3299561-2.2000122,0.7699585-4.960022,1.25-7.0599976
				c0.3800049-1.6799927-0.6600342-3.3600464-2.3200073-3.8099976l-16.1600266-4.3900146
				c-1.289978-0.3499756-2.2399902-1.460022-2.3699951-2.789978l-2.2099609-21.5400391l24.0599899-0.6099854l0.3299561,5.6400146
				l-16.8499756,3.9299927c0,0-0.8300171,11.7799683,0,11.7799683s18.5899658,3.0900269,20.2399902,4.1300049
				c1.6600342,1.0300293-1.6500244,12.7999878-1.0299683,16.3099976
				C149.3461456,392.5193176,150.416153,393.5093079,152.1361237,394.3293152z"/>
			<g>
				<path fill="#192D3C" d="M154.4775391,388.9150391c-0.0478516,0-0.0961914-0.0048828-0.1445313-0.0166016
					c-0.3461914-0.0791016-0.5629883-0.4248047-0.4833984-0.7705078l1.9902344-8.6699219
					c0.4804688-2.09375-0.3916016-4.3085938-2.1704102-5.5117188l-3.684082-2.4921875
					c-0.2944336-0.1992188-0.371582-0.5996094-0.1723633-0.8935547c0.2001953-0.2949219,0.5991211-0.3701172,0.894043-0.1728516
					l3.6835938,2.4921875c2.2158203,1.4990234,3.3022461,4.2578125,2.7041016,6.8652344l-1.9902344,8.6699219
					C155.0361328,388.7138672,154.7709961,388.9150391,154.4775391,388.9150391z"/>
			</g>
			<g>
				<path fill="#192D3C" d="M161.7075195,389.7421875c-0.0581055,0-0.1166992-0.0078125-0.1748047-0.0244141
					c-0.3422852-0.0957031-0.5415039-0.4511719-0.4453125-0.7939453l2.9472656-10.4638672
					c0.6308594-2.2382813-0.262207-4.5839844-2.222168-5.8359375l-3.7573242-2.4003906
					c-0.2993164-0.1914063-0.387207-0.5888672-0.1958008-0.8886719c0.1918945-0.2998047,0.5893555-0.3886719,0.8891602-0.1953125
					l3.7573242,2.4003906c2.440918,1.5595703,3.5537109,4.4804688,2.7680664,7.2695313l-2.9472656,10.4638672
					C162.246582,389.5566406,161.9882813,389.7421875,161.7075195,389.7421875z"/>
			</g>
		</g>
		<path fill="#BB233D" d="M149.1261139,352.7192688l-30.6499557,2.3099976c0,0-5.4200439-27.3299561-10.3300171-59.8899536
			c-1.460022-9.710022-2.8800049-19.8900146-4.0900269-29.9500122c-3.9099731-32.4899902-5.6999512-63.6900024-0.0299683-73.7900391
			c12.3200073-21.9699707,46.8300095-16.1899414,49.140007,8.6700439
			C155.4860992,224.9292908,149.1261139,352.7192688,149.1261139,352.7192688z"/>
		<g>
			<path fill="#192D3C" d="M120.8745117,347.2890625c-0.2041016,0-0.4023438-0.1083984-0.5292969-0.2988281
				c-0.1972656-0.2958984-0.0859375-0.7119141,0.2099609-0.9091797c0.5517578-0.3681641,4.2387695-0.8144531,22.8603516-2.234375
				l2.1157227-0.1611328c0.3632813-0.0175781,0.6640625,0.2382813,0.690918,0.5917969
				c0.0273438,0.3544922-0.237793,0.6640625-0.5922852,0.6914063l-2.1166992,0.1621094
				c-6.3349609,0.4824219-21.1699219,1.6132813-22.3066406,2.0556641
				C121.1015625,347.2558594,120.9873047,347.2890625,120.8745117,347.2890625z"/>
		</g>
		<circle fill="#192D3C" cx="120.0540466" cy="322.6234741" r="3.1383636"/>
		<circle fill="#192D3C" cx="121.6724548" cy="336.11026" r="3.1383636"/>
		<path fill="#D05C79" d="M120.7861557,280.2192688c0,7.5-5.4700317,13.7300415-12.6400146,14.9200439
			c-1.460022-9.710022-2.8800049-19.8900146-4.0900269-29.9500122c0.5300293-0.0599976,1.0700073-0.0900269,1.6100464-0.0900269
			C114.0161362,265.0992737,120.7861557,271.8692932,120.7861557,280.2192688z"/>
		<g>
			<path fill="#192D3C" d="M110.3569336,268.8916016c-0.1230469,0-0.246582-0.034668-0.3564453-0.1079102
				c-0.2958984-0.1972656-0.3759766-0.597168-0.1787109-0.8925781l2.828125-4.2416992
				c0.1967773-0.2963867,0.5966797-0.3759766,0.8925781-0.1787109s0.3759766,0.597168,0.1787109,0.8925781l-2.828125,4.2416992
				C110.769043,268.7910156,110.5649414,268.8916016,110.3569336,268.8916016z"/>
		</g>
		<g>
			<path fill="#192D3C" d="M113.8920898,270.6586914c-0.1225586,0-0.246582-0.034668-0.3564453-0.1079102
				c-0.2958984-0.1972656-0.3759766-0.5966797-0.1787109-0.8925781l2.4741211-3.7114258
				c0.1967773-0.2954102,0.5952148-0.3774414,0.8925781-0.1787109c0.2958984,0.1972656,0.3759766,0.5966797,0.1787109,0.8925781
				l-2.4741211,3.7114258C114.3041992,270.5581055,114.1000977,270.6586914,113.8920898,270.6586914z"/>
		</g>
		<g>
			<path fill="#192D3C" d="M119.1948242,293.4575195c-0.1787109,0-0.3564453-0.0737305-0.4838867-0.2182617l-3.8881836-4.418457
				c-0.234375-0.2670898-0.2084961-0.6738281,0.0581055-0.9086914c0.2685547-0.2338867,0.6743164-0.2084961,0.9086914,0.0581055
				l3.8881836,4.418457c0.234375,0.2670898,0.2084961,0.6738281-0.0581055,0.9086914
				C119.4970703,293.4047852,119.3457031,293.4575195,119.1948242,293.4575195z"/>
		</g>
	</g>
</g>
</svg>
